<?xml version="1.0" encoding="utf-8"?>
<!-- Generator: Adobe Illustrator 16.0.0, SVG Export Plug-In . SVG Version: 6.00 Build 0)  -->
<!DOCTYPE svg PUBLIC "-//W3C//DTD SVG 1.1//EN" "http://www.w3.org/Graphics/SVG/1.1/DTD/svg11.dtd">
<svg version="1.1" id="Layer_1" xmlns="http://www.w3.org/2000/svg" xmlns:xlink="http://www.w3.org/1999/xlink" x="0px" y="0px"
	 width="84px" height="30px" viewBox="0 0 84 30" enable-background="new 0 0 84 30" xml:space="preserve">
<g>
	<path fill="#FFFFFF" d="M19.393,22.037c0,0.474-0.173,0.585-0.408,0.585c-0.178,0-0.465-0.03-0.764-0.03
		c-0.35,0-0.733,0.155-0.915,0.499c-0.179,0.382-0.29,0.654-0.29,2.438c0,0.587,0,1.188,0.053,1.738
		c0.059,0.562,0.322,0.765,0.322,1.077c0,0.271-0.172,0.434-0.375,0.469c-0.529,0.093-1.062,0.146-1.561,0.297
		c-1.295,0.369-2.969,0.833-5.113,0.833C3.498,29.942,0,25.875,0,20.368C0,14.141,4.029,10.07,10.605,10.07
		c3.584,0,4.471,0.537,5.646,0.799c0.295,0.052,0.641,0.225,0.67,0.665c0.065,1.42,0.469,3.278,0.469,3.726
		c0,0.34-0.264,0.445-0.582,0.445c-0.387,0-0.502-0.202-0.557-0.436c-0.208-1.018-0.648-1.945-1.146-2.582
		c-0.617-0.782-1.852-1.432-4.531-1.432c-5.289,0-8.398,3.244-8.398,8.66c0,5.642,3.465,8.805,8.375,8.805
		c2.438,0,3.586-0.521,4.115-1.1c0.291-0.354,0.385-0.904,0.385-2.033c0-1.514-0.094-2.029-0.361-2.404
		c-0.254-0.424-0.732-0.592-1.465-0.592c-0.205,0-0.504,0.03-0.617,0.03c-0.259,0-0.443-0.233-0.443-0.54
		c0-0.479,0.238-0.556,0.443-0.556c0.295,0,1.764,0.139,3.529,0.139c1.615,0,2.436-0.139,2.701-0.139
		C19.158,21.526,19.393,21.584,19.393,22.037z"/>
	<path fill="#FFFFFF" d="M28.709,16.115c-3.789,0-6.936,2.556-6.936,7.16c0,3.627,2.405,6.725,6.613,6.725
		c4.405,0,6.938-3.226,6.938-7.287C35.324,18.886,32.857,16.115,28.709,16.115z M28.595,28.98c-2.761,0-4.706-2.375-4.706-6.172
		c0-3.581,1.787-5.712,4.586-5.712c2.729,0,4.643,2.251,4.643,5.994C33.117,26.811,31.409,28.98,28.595,28.98z"/>
	<path fill="#FFFFFF" d="M41.148,27.856c0.289,0.511,0.846,0.759,1.494,0.759c0.646,0,1.208-0.19,1.731-0.787
		c0.096-0.127,0.271-0.207,0.383-0.207c0.264,0,0.5,0.235,0.5,0.514c0,0.15-0.087,0.29-0.202,0.412
		c-0.41,0.412-1.479,1.35-3.268,1.35c-1.377,0-1.963-0.51-2.318-1.084c-0.381-0.613-0.465-1.557-0.465-2.548
		c0-1.077,0.084-3.969,0.148-7.93c0-0.331-0.12-0.435-0.513-0.435c-0.668,0-1.14,0.059-1.464,0.059
		c-0.235,0-0.439-0.092-0.439-0.557c0-0.382,0.182-0.492,0.383-0.522c1.885-0.296,2.436-1.14,2.881-3.196
		c0.055-0.289,0.119-0.562,0.557-0.562c0.322,0,0.447,0.238,0.447,0.562c0,0.26-0.064,1.586-0.064,2.543
		c0,0.295,0.094,0.439,0.436,0.439c1.117,0,2.383-0.082,2.796-0.082c0.323,0,0.502,0.198,0.502,0.668
		c0,0.493-0.269,0.707-0.534,0.707c-0.436,0-1.734-0.059-2.764-0.059c-0.342,0-0.467,0.14-0.467,0.435
		c-0.054,3.917-0.054,6.725-0.054,7.374C40.854,26.902,41.004,27.533,41.148,27.856z"/>
	<path fill="#FFFFFF" d="M65.561,11.706c0-0.83,0.679-1.409,1.439-1.409c0.833,0,1.419,0.491,1.419,1.409
		c0,0.808-0.562,1.389-1.388,1.389C66.239,13.095,65.561,12.514,65.561,11.706z"/>
	<path fill="#FFFFFF" d="M71.109,29.138c0,0.341-0.15,0.509-0.438,0.509c-0.265,0-1.261-0.139-3.065-0.139
		c-1.787,0-2.577,0.139-2.871,0.139c-0.292,0-0.381-0.23-0.381-0.537c0-0.332,0.199-0.494,0.403-0.494
		c0.117,0,0.393,0.023,0.527,0.023c0.622,0,1.032-0.214,1.183-0.516c0.2-0.377,0.318-1.257,0.318-2.344v-3.853
		c0-1.513-0.118-2.207-0.387-2.665c-0.258-0.534-0.996-0.731-1.582-0.881c-0.236-0.046-0.328-0.139-0.328-0.422
		c0-0.214,0.118-0.354,0.246-0.389c1.172-0.363,2.026-0.904,2.936-1.482c0.205-0.145,0.382-0.196,0.558-0.196
		c0.198,0,0.38,0.167,0.38,0.457c0,0.128,0,0.531-0.03,0.874c-0.087,1.535-0.087,3.047-0.087,4.407v4.079
		c0,1.418,0.117,2.206,0.321,2.455c0.234,0.325,0.622,0.475,1.39,0.475c0.205,0,0.375-0.023,0.47-0.023
		C70.959,28.615,71.109,28.812,71.109,29.138z"/>
	<path fill="#FFFFFF" d="M84,25.824c0,0.291-0.095,0.562-0.233,1.014C83.32,27.996,81.85,30,78.648,30
		c-4.227,0-6.195-3.098-6.195-6.527c0-4.338,2.794-7.357,6.768-7.357c1.75,0,3.104,0.506,3.782,1.362
		c0.283,0.39,0.5,0.961,0.5,1.611c0,0.984-0.687,1.279-1.302,1.279c-0.733,0-1.02-0.417-1.051-0.881
		c-0.034-0.26-0.034-0.638-0.034-0.897c0-0.883-0.994-1.432-2.379-1.432c-2.461,0-4.315,2.104-4.315,5.295
		c0,4.152,2.196,6.162,4.845,6.162c1.704,0,2.935-0.869,3.438-2.01c0.111-0.324,0.111-0.585,0.146-0.826
		c0.061-0.285,0.151-0.488,0.553-0.488C83.883,25.291,84,25.558,84,25.824z"/>
	<path fill="#FFFFFF" d="M47.582,6.162"/>
	<path fill="#FFFFFF" d="M62.438,29.172c0,0.277-0.152,0.475-0.41,0.475c-0.234,0-1.23-0.139-2.971-0.139
		c-1.67,0-2.468,0.139-2.789,0.139c-0.265,0-0.381-0.197-0.381-0.509c0-0.296,0.177-0.522,0.408-0.522
		c0.12,0,0.47,0.023,0.622,0.023c0.646,0,0.938-0.214,1.084-0.549c0.24-0.649,0.301-1.951,0.301-4.189
		c0-2.871-0.184-4.181-0.506-4.876c-0.444-0.929-1.441-1.396-2.672-1.396c-1.411,0-3.022,0.927-3.645,1.72
		c-0.392,0.429-0.503,1.102-0.503,2.642v3.695c0,1.472,0.111,2.23,0.293,2.479c0.233,0.325,0.591,0.475,1.3,0.475
		c0.146,0,0.434-0.023,0.616-0.023c0.322,0,0.434,0.227,0.434,0.557c0,0.277-0.136,0.475-0.434,0.475
		c-0.3,0-1.446-0.139-3.184-0.139c-1.667,0-2.494,0.139-2.782,0.139c-0.27,0-0.386-0.197-0.386-0.509
		c0-0.296,0.147-0.522,0.415-0.522c0.118,0,0.381,0.023,0.551,0.023c0.562,0,1.008-0.185,1.148-0.516
		c0.176-0.377,0.33-1.285,0.33-2.392V13.73c0-2.637-0.065-3.708-0.294-4.171c-0.152-0.267-0.423-0.557-0.979-0.724
		c-0.141-0.07-0.439-0.094-0.674-0.186c-0.082-0.035-0.169-0.174-0.169-0.377c0-0.226,0.109-0.354,0.205-0.365
		c0.422-0.173,0.772-0.318,1.089-0.463C48.41,6.854,48.312,6.2,47.648,6.131c-0.234-0.029-0.48,0.162-0.174,0.26
		C47.726,6.483,48,6.75,47.767,6.994L47.754,7.01c0,0-0.006,0-0.006,0.018c-0.018,0-0.018,0.013-0.022,0.013
		c-0.229,0.202-0.651,0.145-0.804-0.104c-0.186-0.307-0.064-0.77,0.201-1.008c0.578-0.521,1.382-0.296,1.862,0.221V6.09
		c0-1.037,0.989-1.252,1.066-1.252l0,0l0,0c0.04,0,0.304,0.059,0.573,0.238c0.247,0.191,0.492,0.498,0.492,1.014v0.289
		c0.435-0.666,1.384-1.043,2.052-0.451c0.258,0.238,0.379,0.701,0.198,1.008c-0.158,0.249-0.574,0.307-0.797,0.104
		c-0.012,0-0.024,0-0.024-0.013c0,0,0-0.018-0.01-0.018l0,0l-0.014-0.016c-0.232-0.244,0.036-0.511,0.282-0.604
		c0.311-0.098,0.069-0.289-0.164-0.26c-0.668,0.069-0.767,0.746-0.808,1.348c0.304,0.135,0.644,0.273,1.037,0.43
		c0.101,0.012,0.21,0.14,0.21,0.365c0,0.203-0.088,0.342-0.182,0.377c-0.229,0.092-0.526,0.115-0.668,0.186
		c-0.562,0.167-0.826,0.457-0.972,0.724c-0.129,0.249-0.205,0.678-0.247,1.454c-0.018,0.226-0.022,0.508-0.034,0.816v6.129
		c0,0.184,0.088,0.283,0.21,0.283c0.083,0,0.21-0.07,0.316-0.146c1.56-1.406,3.27-2.037,4.852-2.037c1.383,0,2.203,0.37,2.825,1.222
		c0.585,0.815,0.814,1.837,0.814,4.323v3.456c0,2.362,0.093,2.879,0.238,3.104c0.207,0.354,0.417,0.475,1.174,0.475
		c0.151,0,0.532-0.023,0.621-0.023C62.286,28.615,62.438,28.842,62.438,29.172z"/>
	<path fill="#FFFFFF" d="M39.801,7.723c-0.17,0-0.227,0.087-0.248,0.262c-0.016,0.061-0.037,0.181-0.088,0.289
		c-0.199,0.41-0.737,0.809-1.585,0.809c-1.222,0-2.142-0.932-2.142-2.435c0-0.306,0.068-0.425,0.213-0.425
		c1.201,0,2.92,0,3.602-0.07c0.307-0.023,0.405-0.153,0.405-0.389c0-1.076-0.659-2.051-2.259-2.051
		c-1.658,0-2.776,1.264-2.776,3.141c0,1.53,0.935,2.824,2.669,2.824c1.307,0,1.982-0.629,2.252-1.109
		c0.129-0.219,0.203-0.463,0.203-0.584C40.047,7.799,39.958,7.723,39.801,7.723z M36.014,5.197c0.283-0.684,0.911-1.055,1.544-1.055
		c0.981,0,1.457,0.469,1.457,1.239c0,0.202-0.13,0.322-0.349,0.349c-0.389,0.066-1.387,0.077-2.611,0.077
		c-0.127,0-0.164-0.077-0.164-0.131C35.896,5.496,35.951,5.338,36.014,5.197z"/>
	<path fill="#FFFFFF" d="M34.666,9.311c0,0.137-0.059,0.225-0.18,0.225c-0.112,0-0.546-0.076-1.292-0.076
		c-0.735,0-1.081,0.076-1.225,0.076c-0.115,0-0.169-0.088-0.169-0.234c0-0.121,0.064-0.219,0.178-0.219
		c0.05,0,0.211,0.012,0.262,0.012c0.303,0,0.422-0.088,0.473-0.246c0.121-0.279,0.145-0.83,0.145-1.791
		c0-1.238-0.074-1.806-0.235-2.09c-0.19-0.409-0.616-0.6-1.161-0.6c-0.609,0-1.312,0.393-1.584,0.736
		c-0.159,0.191-0.215,0.47-0.215,1.135V7.81c0,0.646,0.045,0.978,0.126,1.081c0.097,0.131,0.24,0.203,0.546,0.203
		c0.07,0,0.197-0.012,0.273-0.012c0.145,0,0.2,0.098,0.2,0.229c0,0.137-0.056,0.225-0.187,0.225c-0.126,0-0.628-0.076-1.387-0.076
		c-0.738,0-1.105,0.076-1.238,0.076c-0.099,0-0.152-0.088-0.152-0.234c0-0.121,0.061-0.219,0.18-0.219
		c0.054,0,0.151,0.012,0.242,0.012c0.23,0,0.445-0.072,0.5-0.236C28.842,8.7,28.91,8.324,28.91,7.843V2.838
		c0-0.51-0.109-0.688-0.24-0.789c-0.264-0.244-1.188-0.259-2.685-0.259c-0.745,0-1.048,0-1.194,0.074
		c-0.09,0.056-0.113,0.185-0.113,0.493V7.75c0,0.705,0.091,0.992,0.178,1.119c0.105,0.152,0.363,0.213,0.721,0.213
		c0.055,0,0.229-0.016,0.305-0.016c0.09,0,0.146,0.102,0.146,0.234c0,0.158-0.088,0.234-0.178,0.234
		c-0.205,0-0.834-0.088-1.621-0.088c-0.789,0-1.338,0.088-1.47,0.088c-0.122,0-0.185-0.088-0.185-0.234
		c0-0.133,0.046-0.234,0.139-0.234c0.068,0,0.223,0.016,0.285,0.016c0.275,0,0.6-0.094,0.689-0.257
		c0.082-0.142,0.132-0.382,0.132-1.06V2.357c0-0.219-0.011-0.408-0.12-0.467c-0.125-0.086-0.538-0.101-1.102-0.101
		c-0.698,0-1.006,0.046-1.256,0.259c-0.206,0.191-0.312,0.572-0.357,0.965c-0.006,0.098-0.076,0.188-0.242,0.188
		c-0.123,0-0.23-0.06-0.23-0.174c0-0.102,0.107-1.049,0.107-1.559c0-0.158,0.09-0.23,0.193-0.23c0.258,0,0.366,0.072,3.467,0.072
		c2.162,0,3.279,0,3.963-0.043c0.348,0,0.474-0.119,0.564-0.395c0.08-0.248,0.127-0.432,0.158-0.581C29,0.134,29.041,0,29.323,0
		c0.284,0,0.372,0.065,0.372,0.246c0,0.168-0.033,0.844-0.033,1.982v2.264c0,0.107,0.033,0.131,0.09,0.131
		c0.036,0,0.064-0.023,0.125-0.065c0.693-0.589,1.428-0.862,2.129-0.862c0.594,0,0.967,0.162,1.232,0.508
		C33.496,4.558,33.6,5.01,33.6,6.068v1.48c0,0.998,0.045,1.238,0.107,1.342c0.09,0.142,0.177,0.203,0.51,0.203
		c0.067,0,0.225-0.012,0.261-0.012C34.592,9.082,34.666,9.18,34.666,9.311z"/>
</g>
</svg>
