<?xml version="1.0" encoding="utf-8"?>
<!-- Generator: Adobe Illustrator 16.0.0, SVG Export Plug-In . SVG Version: 6.00 Build 0)  -->
<!DOCTYPE svg PUBLIC "-//W3C//DTD SVG 1.1//EN" "http://www.w3.org/Graphics/SVG/1.1/DTD/svg11.dtd">
<svg version="1.1" id="Layer_1" xmlns="http://www.w3.org/2000/svg" xmlns:xlink="http://www.w3.org/1999/xlink" x="0px" y="0px"
	 width="50px" height="100px" viewBox="0 0 50 100" enable-background="new 0 0 50 100" xml:space="preserve">
<g>
	<path fill="#A6B2A3" d="M25.146,27.138c-0.115,0-0.6,0.402-0.673,0.499c-0.203,0.263-0.198,0.434-0.508,0.638
		c-0.707,0.464-1.117,1.29-1.856,1.711c-0.275,0.156-0.312,0.377-0.51,0.607c-0.226,0.26-0.511,0.463-0.784,0.668
		c-0.638,0.479-1.269,1.26-2.017,1.544c-1.743,1.584-3.595,2.616-3.478,2.741c2.541,2.116,6.641,4.036,7.346,4.568
		c0.303,0.227,0.578,0.593,0.925,0.74c0.354,0.153,2.152,0.066,3.344-0.123c0.178-0.221,0.268-0.484,0.466-0.693
		c0.266-0.278,6.884-3.842,7.59-4.693c-0.479-0.341-0.982-0.627-1.446-0.98c-0.461-0.353-1.026-0.461-1.456-0.899
		c-0.387-0.399-0.852-0.688-1.254-1.082c-0.45-0.443-0.959-0.831-1.35-1.335c-0.138-0.177-0.274-0.359-0.438-0.512
		c-0.202-0.188-0.477-0.233-0.672-0.422c-0.383-0.368-0.729-0.789-1.109-1.168c-0.372-0.374-0.858-0.629-1.213-1.017
		C25.841,27.697,25.499,27.138,25.146,27.138z"/>
	<path fill="#A6B2A3" d="M42.293,38.765c0.057,0.274-1.347,0.864-1.57,0.977c-0.64,0.317-1.275,0.599-1.984,0.711
		c-0.339,0.055-1.394,0.312-1.599-0.066c-0.49-0.909-0.046-2.391-1.295-2.769c-1.213-0.365-2.487,0.319-3.724-0.024
		c0.641-0.326,1.258-0.704,1.838-1.13c0.738,0.325,1.587,0.483,2.38,0.598c1.444,0.212,3.045-0.206,4.322-0.879
		c0.614-0.324,0.401,0.078,0.102,0.396c-0.246,0.261-0.498,0.495-0.774,0.724c-0.192,0.16-1.791,1.269-1.689,1.525
		c0.064,0.146,1.88-0.069,2.059-0.076C40.516,38.743,42.256,38.595,42.293,38.765C42.329,38.936,42.263,38.623,42.293,38.765z"/>
	<path fill="#A6B2A3" d="M31.536,38.599c-0.156-0.159-0.277-0.546-0.065-0.641c0.108-0.048,0.214-0.098,0.32-0.151
		c0.141,0.054,0.302,0.154,0.452,0.178c0.685,0.12,1.39,0.004,2.068-0.103c0.645-0.099,1.311-0.149,1.895,0.2
		c0.582,0.342-0.626,1.084-0.872,1.221c-0.802,0.444-1.735,0.689-2.62,0.904c-0.193,0.046-0.922,0.3-0.984,0.007
		c-0.063-0.295-0.401-0.98-0.206-1.263c0,0.021,0.166,0.048,0.009-0.013c1.201,0.451,2.188,0.033,3.353-0.204
		c-0.005-0.3-1.46,0.134-1.636,0.154C32.79,38.939,31.894,38.974,31.536,38.599C31.443,38.505,31.729,38.802,31.536,38.599z"/>
	<path fill="#A6B2A3" d="M13.632,16.02c-0.16,0-0.369,0.42-0.435,0.532c-0.193,0.328-0.204,0.593-0.13,0.959
		c0.334-0.139,0.29,0.189,0.272,0.478c-0.008,0.123,0.093,0.117,0.113,0.221c0.039,0.182,0.027,0.373,0.021,0.557
		c-0.014,0.325,0.007,0.484,0.166,0.749c0.177,0.296,0.049,0.943,0.086,1.29c0.204,1.882,1.133,3.578,1.765,5.332
		c0.618,1.717,0.884,3.576,0.375,5.358c-0.213,0.749-0.564,1.496-1.012,2.136c-0.07,0.1-0.669,0.658-0.641,0.727
		c0.086,0.212,0.253,0.085,0.369-0.011c0.705-0.591,1.244-1.45,1.769-2.199c0.388-0.553,0.685-1.157,1.045-1.728
		c0.128-0.201,0.194-0.529,0.429-0.64c0.279-0.138,0.346-0.637,0.498-0.888c0.39-0.64,0.844-1.248,1.26-1.872
		c0.151-0.226,0.34-0.472,0.611-0.558c0.422-0.137,0.193-0.473,0.461-0.783c0.329-0.383,0.726-0.7,1.008-1.123
		c0.071-0.107,0.241-0.357,0.105-0.478c-0.13-0.119-0.265-0.231-0.377-0.368c-0.105-0.129-0.107-0.337-0.238-0.446
		c-0.778-0.156-1.536-1.068-2.052-1.644c-0.632-0.706-1.487-1.141-2.112-1.838c-0.115-0.127-0.215-0.265-0.315-0.403
		c-0.118-0.161-0.321-0.158-0.479-0.252c-0.385-0.234-0.738-0.52-1.056-0.841s-0.6-0.675-0.849-1.05
		C14.222,17.136,13.61,16.02,13.632,16.02z"/>
	<path fill="#A6B2A3" d="M37.128,14.007c-0.476,0.037-0.299,1.646-0.23,1.871c0.25,0.815,0.844,1.561,1.53,2.053
		c1.897,1.364,4.277,0.474,5.885-0.841c0.24-0.197,0.248-0.25-0.057-0.362c-0.232-0.085-0.479-0.14-0.694-0.268
		c-0.354-0.21-0.55,0.27-0.826,0.461c-0.475,0.328-0.938,0.176-1.47,0.237c-0.242,0.025-0.638,0.633-0.409,0.633
		c0.129,0,0.25-0.087,0.386-0.087c0.226,0,0.067,0.195-0.023,0.23c-0.331,0.13-0.78,0.087-1.116,0.02
		c-0.461-0.09-1.035-0.271-1.339-0.657c-0.141-0.177-0.209-0.406-0.3-0.61c-0.14-0.312-0.012-0.632-0.129-0.93
		c-0.353,0.502-0.146,0.73-0.196,1.26c-0.019,0.192-0.41-0.201-0.442-0.235C37.008,16.04,36.803,14.964,37.128,14.007z"/>
	<path fill="#A6B2A3" d="M43.465,8.265c-0.19,0.233-0.956-0.201-1.194-0.323c-0.199-0.104-0.101-0.241-0.06-0.425
		c0.152-0.669,0.128-1.383-0.252-1.976c-0.261-0.409-0.653-0.712-1.08-0.93c-0.237-0.123-0.687-0.391-0.956-0.314
		c-0.345,0.097,0.172,0.265,0.241,0.285c0.282,0.082,1.273,0.741,0.828,1.084c-0.131,0.101-0.345,0.12-0.426,0.28
		c-0.146,0.291,0.178,0.645,0.332,0.856c-0.649,0-1.089-0.922-1.371-1.385c-0.457-0.745-1.109-1.152-1.97-0.75
		c-0.905,0.424-1.399,1.346-2.098,2.016c-0.758,0.726-1.608,0.878-2.587,1.074c0.133-0.282,0.258-0.583,0.271-0.898
		c0.014-0.263-0.064-0.598,0.236-0.65c1.138-0.203,1.732-0.963,2.413-1.832c0.948-1.211,2.355-1.779,3.867-1.656
		c1.045,0.085,2.119,0.745,2.851,1.466C43.617,5.28,43.96,6.787,43.465,8.265z"/>
	<path fill="#A6B2A3" d="M33.164,6.847c-0.006,0.213-0.021,0.42-0.073,0.627C33.119,7.266,33.143,7.056,33.164,6.847
		C33.163,6.869,33.143,7.07,33.164,6.847z"/>
	<path fill="#A6B2A3" d="M41.092,15.249c0.431,0.393,1.125,0.645,1.687,0.394c-0.104-0.29-0.204-0.335-0.487-0.277
		C41.88,15.45,41.492,15.342,41.092,15.249z"/>
	<path fill="#A6B2A3" d="M37.371,5.884c-0.443,0-0.861,0.984-0.947,1.323c-0.145,0.555-0.068,1.141,0.147,1.666
		c0.501,1.219,1.707,2.202,3.031,2.3c0.272,0.021,1.245,0.047,1.34-0.296c0.113-0.413-0.448-0.803-0.778-0.82
		c-0.611-0.029-1.232-0.233-1.659-0.703c-0.445-0.487-0.523-1.168-0.735-1.768c-0.224,0.162-0.069,0.751-0.034,0.975
		c0.026,0.176,0.068,0.391,0.003,0.563c-0.11,0.289-0.476-0.335-0.519-0.411c-0.271-0.472-0.394-1.036-0.335-1.579
		c0.028-0.243,0.097-0.48,0.207-0.699C37.123,6.377,37.479,5.884,37.371,5.884z"/>
	<path fill="#A6B2A3" d="M38.278,35.38c-0.544-0.097-1.06,0.048-1.6-0.129c-0.76-0.251-1.572-0.591-2.121-1.198
		c-0.607-0.676-1.058-1.421-1.552-2.174c-0.25-0.376-0.375-0.823-0.645-1.185c-0.289-0.398-0.44,0.149-0.706,0.261
		c-0.063-0.188,0.188-0.515,0.213-0.71c0.048-0.351-0.114-0.64-0.294-0.924c-0.364-0.577-0.819-1.096-1.209-1.655
		c-0.137-0.197-0.802-1.269-1.1-0.857c-0.192,0.263-0.555,0.58-0.411,0.027c0.157-0.594,0.17-0.82-0.17-1.362
		c-0.372-0.594-0.81-1.152-1.234-1.708c-0.221-0.287-0.447-0.569-0.687-0.838c-0.129-0.144-0.489-0.653-0.699-0.653
		c-0.163,0-0.565,1.24-0.795,1.419c-0.023-0.303,0.271-0.731,0.343-1.04c0.094-0.397,0.157-0.803-0.055-1.174
		c-0.184-0.322-0.491-0.55-0.741-0.817c-0.295-0.311-0.551-0.657-0.812-0.997c-0.227-0.297-0.456-0.592-0.716-0.861
		c-0.168-0.173-0.607-0.671-0.869-0.671c-0.299,0-0.6,0.964-0.939,1.088c0.23-0.486,0.754-1.106,0.493-1.673
		c-0.241-0.522-0.823-0.936-1.175-1.389c-0.362-0.464-0.725-0.961-1.234-1.273c-0.568-0.349-0.648,1.075-0.967,0.887
		c0.207-0.455,0.513-1.074,0.431-1.587c-0.065-0.412-0.671-0.805-0.936-1.1c-0.36-0.407-0.686-0.814-1.274-0.757
		c-0.48,0.048-0.954,0.245-1.443,0.192c-0.546-0.061-0.806-0.537-1.028-0.986c-0.211-0.425-0.39-0.875-0.693-1.246
		c-0.31-0.378-0.441-0.206-0.75,0.103c-0.228,0.229-0.375,0.352-0.075,0.572c0.405,0.295,0.63,0.699,0.873,1.135
		c0.269,0.487,0.49,1.05,0.504,1.614c0.017,0.604-0.196,1.188-0.165,1.791c0.074,1.102,1.05,2.164,1.82,2.874
		c0.297,0.272,0.741,0.569,1.16,0.451c0.102-0.028,0.884-0.347,0.939-0.252c0.073,0.11-0.529,0.504-0.609,0.563
		c-0.344,0.255,0.48,0.854,0.647,0.983c0.453,0.351,0.965,0.635,1.349,1.071c0.441,0.508,0.91,1.012,1.454,1.413
		c0.516,0.38,0.884,0.031,1.401-0.139c0.477-0.156,0.275,0.128,0.016,0.284c-0.152,0.092-0.621,0.278-0.523,0.53
		c0.191,0.497,0.93,0.956,1.327,1.282c0.533,0.438,1.041,0.909,1.569,1.354c0.246,0.21,0.536,0.414,0.761,0.645
		c0.189,0.194,0.299,0.43,0.59,0.485c0.473,0.093,0.877-0.129,1.28-0.326c0.497-0.245,0.16,0.133-0.06,0.29
		c-0.168,0.122-0.805,0.323-0.654,0.585c0.322,0.54,0.857,0.913,1.327,1.311c0.366,0.308,0.723,0.883,1.198,1.012
		c0.402,0.106,0.858-0.401,1.214-0.236c-0.233,0.229-0.608,0.34-0.812,0.558c-0.162,0.174,0.771,0.957,0.906,1.08
		c0.375,0.342,0.744,0.702,1.142,1.017c0.176,0.14,0.376,0.283,0.59,0.355c0.223,0.07,0.459-0.127,0.673-0.027
		c-0.008,0.226-0.203,0.299-0.37,0.389c0.326,0.411,0.769,0.72,1.212,0.99c0.583,0.359,1.143,0.81,1.775,1.08
		c0.497,0.214,1.109,0.423,1.654,0.438C37.117,35.565,38.365,35.541,38.278,35.38C38.125,35.353,38.353,35.518,38.278,35.38z
		 M16.144,14.657c-0.457,0.371-1.096,0.966-1.698,0.922c-0.167,0-0.289-0.096-0.063-0.229c0.341-0.201,0.676-0.311,0.993-0.559
		c0.4-0.312,0.836-0.632,1.193-0.995c0.188-0.19,0.478-1.032,0.774-1.032c0.222,0-0.274,0.949-0.325,1.019
		C16.774,14.119,16.465,14.401,16.144,14.657C15.798,14.939,16.684,14.229,16.144,14.657z"/>
	<path fill="#A6B2A3" d="M37.519,10.586c-0.274-0.217-0.436-0.555-0.717-0.767c-0.283-0.214-0.663,0.25-0.835,0.446
		c-0.562,0.641-0.752,1.95-1.752,1.95c-0.444,0-0.894-0.148-1.335-0.074c-0.598,0.101-1.051,0.574-1.416,1.023
		c-0.29,0.356-0.691,0.767-0.674,1.263c0.004,0.145,0.496,1.055,0.487,1.055c-0.374,0-0.48-0.739-0.87-0.739
		c-0.459,0-1.064,1.027-1.326,1.348c-0.398,0.49-0.957,0.962-1.065,1.618c-0.049,0.287,0.036,0.565,0.107,0.841
		c0.067,0.257,0.305,0.475,0.336,0.728c-0.021-0.07-0.091-0.009-0.043,0.013c-0.291-0.104-0.487-0.546-0.63-0.793
		c-0.182-0.316-0.202-0.605-0.564-0.322c-0.294,0.23-1.883,2.472-1.699,2.64c0.394,0.362,0.628,0.922,1.009,1.326
		c0.417,0.443,0.872,0.848,1.245,1.33c0.238,0.306,0.273,0.497,0.579,0.131c0.091-0.107,0.464-0.442,0.234-0.58
		c-0.375-0.225-0.893-0.224-1.092-0.703c0.171-0.072,0.406,0.191,0.601,0.191c0.484,0,0.659,0.282,1.177,0.046
		c0.938-0.425,1.549-1.436,2.322-2.085c0.221-0.186,1.739-1.353,1.091-1.666c-0.235-0.114-0.454-0.147-0.677-0.299
		c-0.043-0.029-0.674-0.58-0.502-0.58c0.113,0,0.373,0.267,0.471,0.333c0.252,0.166,0.524,0.289,0.824,0.326
		c0.423,0.045,0.943-0.18,1.197-0.522c0.115-0.151,0.647-0.71,0.665-0.906c0.037-0.427,0.727-0.889,0.957-1.236
		c0.699-1.046,0.079-2.007,0.179-3.128c0.042-0.477,0.549-1.135,0.86-1.476C36.723,11.25,37.605,10.659,37.519,10.586
		C37.324,10.433,37.668,10.71,37.519,10.586z M34.379,15.189c-0.521-0.355-0.905-0.775-1.247-1.295
		c-0.205-0.309-0.704-0.895-0.664-1.295c0.023-0.216,0.28,0.176,0.295,0.203c0.167,0.276,0.317,0.526,0.519,0.781
		c0.647,0.827,1.579,1.371,2.381,2.032C35.222,15.731,34.725,15.425,34.379,15.189z"/>
	<path fill="#A6B2A3" d="M25.989,10.338c0.566,0.28,1.145,0.592,1.471,1.161c-0.118,0.06-1.694-1.402-3.849-1.426
		c-3.233,0.245-5.29,2.249-5.229,2.398c0.237,0.535,0.875,0.886,1.088,1.447c0.122,0.321,0.362,0.404,0.631,0.625
		c0.368,0.3,0.626,0.722,0.927,1.086c0.389,0.473,1.187,0.979,1.327,1.602c0.092,0.413,0.804,0.574,1.068,0.876
		c0.539,0.615,1.04,1.407,1.694,1.901c0.083,0.062,1.099-1.474,1.229-1.653c0.233-0.323,0.474-0.72,0.802-0.957
		c0.092-0.069,0.209-0.088,0.307-0.152c0.14-0.094,0.115-0.313,0.188-0.454c0.332-0.634,1.007-1.168,1.472-1.702
		c0.271-0.31,0.484-0.681,0.794-0.958c0.099-0.088,0.233-0.114,0.35-0.172c0.193-0.099,0.217-0.355,0.31-0.534
		c0.205-0.387,0.484-0.731,0.793-1.039C31.604,12.143,29.4,9.25,25.989,10.338z"/>
	<path fill="#A6B2A3" d="M30.003,5.746c-0.78,0-1.469,0.231-2.181,0.542c-0.339,0.148-0.809,0.353-0.792,0.664
		c0.014,0.247-0.08,0.814,0.307,0.715c0.281-0.073,0.527-0.246,0.796-0.356c0.731-0.299,1.554-0.328,2.302-0.071
		c0.652,0.224,0.974-0.352,1.105-0.926C31.682,5.729,30.301,5.746,30.003,5.746z"/>
	<path fill="#A6B2A3" d="M25.76,45.639c-0.396,0-0.873-0.166-0.883,0.337c-0.01,0.533,0.099,1.119,0.304,1.611
		c0.058,0.138,0.146,0.354,0.305,0.403c0.35,0.108,0.137-0.732,0.146-0.904C25.647,46.795,26.249,45.639,25.76,45.639z"/>
	<path fill="#A6B2A3" d="M22.325,24.661c-0.324,0-0.881,0.846-1.068,1.061c-0.215,0.248-0.483,0.478-0.466,0.837
		c0.02,0.371,0.26,0.699,0.444,1.007c0.001,0.001-0.18-0.015-0.21-0.035c-0.143-0.107-0.37-0.733-0.598-0.623
		c-0.507,0.248-0.922,1.025-1.241,1.473c-0.372,0.521-0.875,1.146-0.585,1.809c0.118,0.27-0.089,0.214-0.208,0.071
		c-0.254-0.297-0.529-0.007-0.693,0.236c-0.799,1.177-1.451,2.421-2.401,3.489c-0.504,0.569-1.048,1.012-1.756,1.293
		c-0.342,0.137-0.688,0.234-1.058,0.22c-0.284-0.013-0.645-0.078-0.901,0.08c1.025,0.558,2.466,0.099,3.42-0.406
		c0.576-0.305,1.068-0.736,1.601-1.105c0.482-0.339,1.02-0.658,1.37-1.148c-0.094-0.006-0.669-0.168-0.579-0.344
		c-0.001,0.004,0.761,0.042,0.824,0.029c0.48-0.099,0.813-0.392,1.176-0.704c0.639-0.553,1.572-0.941,1.936-1.758
		c-0.172-0.08-0.706-0.068-0.776-0.288c-0.045-0.139,0.706-0.036,0.763-0.036c0.764,0,1.025-0.598,1.479-1.099
		c0.088-0.099,1.264-1.051,1.089-1.141c-0.352-0.18-0.871-0.038-1.173-0.361c-0.217-0.235,0.298-0.097,0.351-0.081
		c0.274,0.081,0.543,0.22,0.833,0.188c0.4-0.042,1.147-0.274,0.704-0.736c-0.292-0.307-0.636-0.561-0.963-0.828
		C23.363,25.532,22.702,24.661,22.325,24.661z"/>
	<path fill="#A6B2A3" d="M10.35,2.88c-1.745,0-3.206,1.223-3.656,2.897C6.499,6.508,6.52,7.303,6.848,7.992
		c0.172,0.361,0.97-0.11,1.286-0.18C7.846,7.176,7.737,6.39,8.016,5.729c0.142-0.335,0.387-0.614,0.698-0.798
		c0.2-0.117,0.775-0.366,1.02-0.224c0.082,0.047-0.518,0.342-0.554,0.378C9.008,5.258,8.991,5.58,9.087,5.792
		c0.076,0.175,0.368,0.141,0.395,0.35c0.035,0.279,0.059,0.546,0.312,0.715c0.092-0.642-0.116-1.297,0.465-1.794
		c0.586-0.498,1.451-0.511,2.119-0.161c1.153,0.603,2.016,1.588,3.086,2.313c1.194,0.805,2.588,1.389,4.05,1.216
		c0.739-0.09,1.395-0.492,2.056-0.805c0.292-0.138,0.592-0.265,0.904-0.35c0.24-0.065,0.745-0.026,0.886-0.273
		c0.284-0.498-0.105-0.871-0.586-0.827c-0.546,0.051-1.109,0.254-1.62,0.452c-1.338,0.52-2.563,1.043-3.979,0.412
		C14.669,5.92,13.381,2.88,10.35,2.88z"/>
	<path fill="#A6B2A3" d="M23.329,7.533c-0.298,0.173-0.6,0.345-0.927,0.456c-0.339,0.115-0.57,0.036-0.901,0.036
		c-0.351,0-0.652,0.26-0.958,0.396c-0.298,0.13-0.699,0.089-0.957,0.306c0.054,0.205,0.855,0.322,1.015,0.354
		c0.446,0.089,1.088,0.211,1.518,0c0.22-0.11,0.077-0.867,0.337-0.73c0.131,0.062,0.377,0.304,0.51,0.098
		C23.138,8.173,23.364,7.88,23.329,7.533z"/>
	<path fill="#A6B2A3" d="M12.488,39.749c-0.175,0.264-0.204,1.029-0.653,0.977c-0.702-0.085-1.45-0.156-2.112-0.424
		c-0.852-0.344-1.582-0.894-2.338-1.399c0.317-0.072,0.773,0.105,1.097,0.136c0.479,0.045,1-0.069,1.469-0.159
		c0.394-0.073,0.845-0.061,1.241-0.01c0.148,0.02,0.907,0.208,0.989,0.033c0.021-0.048-1.327-0.853-1.422-0.937
		c-0.359-0.312-0.682-0.687-1.083-0.942c-0.312-0.201-0.43-0.585-0.711-0.818c0.089-0.119,1.204,0.461,1.342,0.521
		c0.825,0.355,1.767,0.486,2.659,0.449c0.964-0.04,1.97-0.502,2.855-0.854c0.624,0.523,1.323,0.963,2.04,1.342
		c-1.21,0.155-2.352-0.339-3.573-0.102c-0.431,0.085-0.912,0.194-1.134,0.62C12.894,38.678,12.799,39.27,12.488,39.749
		C12.307,40.023,12.594,39.585,12.488,39.749z"/>
	<path fill="#A6B2A3" d="M17.544,38.049c0.223,0,0.439-0.083,0.641-0.17c0.243,0.12,0.615,0.147,0.5,0.446
		c-0.173,0.45-0.679,0.547-1.11,0.6c-0.189,0.023-2.153-0.138-2.128,0.04c0.091,0.263,1.216,0.284,1.452,0.312
		c0.449,0.056,0.86-0.013,1.301-0.102c0.424-0.086,0.247,0.325,0.183,0.633c-0.047,0.224-0.054,0.552-0.342,0.552
		c-0.362,0-0.735-0.14-1.074-0.253c-0.777-0.258-1.576-0.475-2.303-0.862c-0.333-0.176-0.656-0.391-0.903-0.682
		c-0.437-0.495,0.282-0.641,0.636-0.694c0.577-0.089,1.166-0.109,1.747-0.043C16.614,37.879,17.069,38.049,17.544,38.049z"/>
	<path fill="#A6B2A3" d="M15.629,27.907c-0.158,0-0.457,0.262-0.632,0.312c-0.271,0.078-0.553,0.112-0.831,0.142
		c-0.322,0.036-0.64,0.088-0.96,0.14c-0.237,0.037-0.651-0.048-0.853,0.085c0.198,0.243,0.183,0.591,0.224,0.886
		c0.054,0.404-0.229,1.018-0.065,1.384c0.165,0.369,1.053,0.314,1.387,0.314c0.658,0,1.655-0.144,1.802-0.933
		C15.747,29.988,15.903,27.907,15.629,27.907z"/>
	<path fill="#A6B2A3" d="M15.385,31.238c-0.497,0-0.968,0.164-1.476,0.161c-0.368-0.001-1.205-0.271-1.523-0.055
		c-0.859,0.59-0.925,1.338-0.277,2.088c0.3,0.35,0.715,0.683,1.182,0.75c0.592,0.084,1.015-0.469,1.329-0.895
		C14.761,33.1,15.929,31.238,15.385,31.238z"/>
	<path fill="#A6B2A3" d="M12.805,17.308c-0.453,0.262-0.051,1.359-0.087,1.77c-0.033,0.371-0.029,1.375-0.361,1.611
		c-0.159,0.114-0.297-1.109-0.303-1.275c-0.011-0.299-0.512-0.28-0.406-0.728c0.051-0.219,0.246-0.362,0.471-0.362
		c0.18,0,0.28,0.203,0.449,0.203c-0.039-0.264-0.066-0.529-0.08-0.795c-0.139-0.034-0.317,0.347-0.399,0.446
		c-0.093,0.119-0.317,0.167-0.448,0.228c-0.311,0.141-0.872,0.385-1.013,0.717c-0.178,0.419-0.157,0.993-0.244,1.439
		c-0.137,0.701-0.301,1.396-0.429,2.101c-0.37,2.04,0.354,3.988,1.953,5.294c0.682,0.557,2.045,0.295,2.825,0.046
		c0.935-0.297,0.671-1.17,0.374-1.878c-0.393-0.937-0.73-1.9-1.098-2.848c-0.446-1.148-0.729-2.348-0.656-3.588
		c-0.686,0.115,0.166-0.719-0.161-1.051c-0.152-0.155-0.277-0.208-0.19-0.463c0.043-0.125,0.127-0.283,0.052-0.417
		C12.793,17.605,12.958,17.523,12.805,17.308z"/>
	<path fill="#A6B2A3" d="M11.256,32.697c-0.745,0-0.699,1.216-0.674,1.67c0.045,0.824,0.662,0.95,1.342,0.626
		c0.247-0.117,0.515-0.172,0.76-0.296c0.434-0.217,0.272-0.321-0.068-0.562c-0.302-0.217-0.586-0.434-0.791-0.748
		C11.726,33.237,11.474,32.697,11.256,32.697z"/>
	<path fill="#A6B2A3" d="M10.498,27c0.078,0.039,0.122,0.548,0.139,0.627c0.085,0.4,0.167,0.804,0.271,1.2
		c0.191,0.723,0.423,1.626,0.955,2.174c0.255,0.265,0.313-0.456,0.331-0.617c0.056-0.526,0.101-1.079-0.105-1.581
		c-0.198-0.458-0.609-0.706-0.92-1.071C11.026,27.564,10.729,27.034,10.498,27z"/>
	<path fill="#A6B2A3" d="M9.802,32.998c-0.653,0-1.029,0.832-1.176,1.365c-0.341,0.343,0.909,0.718,1.062,0.757
		c0.132,0.034,0.641,0.163,0.691-0.03c0.063-0.243-0.033-0.548-0.079-0.787C10.213,33.851,10.527,32.998,9.802,32.998z"/>
	<path fill="#A6B2A3" d="M7.955,31.583c-0.308,0.125-0.607,0.274-0.935,0.344c-0.161,0.037-0.355,0.042-0.491,0.148
		c-0.253,0.197,0.343,1.286,0.633,1.286c0.366,0,0.704-0.561,0.912-0.806c0.125-0.146,0.327-0.233,0.412-0.412
		C8.606,31.885,8.122,31.649,7.955,31.583z"/>
	<path fill="#A6B2A3" d="M6.829,28.904c-0.741,0-0.794,0.413-0.854,1.017c0.01,0.543-0.12,1.804,0.695,1.804
		c0.599,0,1.317-0.311,1.057-0.978C7.57,30.341,7.367,28.904,6.829,28.904z"/>
	<path fill="#A6B2A3" d="M7.094,24.653c-0.426,0-0.357,0.782-0.32,1.011c0.007,0.042,0.086,0.525-0.088,0.337
		c-0.096-0.213-0.13-0.423-0.274-0.613c-0.431-0.57-0.402,0.401-0.45,0.702c-0.109,0.768-0.17,1.482-0.026,2.249
		c0.083,0.48,0.698,0.421,1.028,0.213C7.275,28.356,7.431,27.329,7.476,27C7.499,26.84,7.481,24.653,7.094,24.653z"/>
	<path fill="#A6B2A3" d="M11.997,18.495c-0.372,0-0.372,0.58,0,0.58C12.369,19.075,12.369,18.495,11.997,18.495z"/>
	<path fill="#A6B2A3" d="M38.095,18.495c-0.37,0-0.37,0.58,0,0.58C38.469,19.075,38.469,18.495,38.095,18.495z"/>
	<path fill="#A6B2A3" d="M9.094,32.871c-0.085-0.575-0.661-0.301-0.938-0.103C7.974,32.9,7.8,33.052,7.661,33.23
		c-0.014,0.017-0.235,0.443-0.179,0.436c0.064,0.255,0.453,0.629,0.728,0.613C8.46,34.267,9.13,33.113,9.094,32.871z"/>
	<path fill="#A6B2A3" d="M36.928,17.463c-0.189-0.053-0.299,1.229-0.296,1.303c0.015,0.325-0.008,0.483-0.167,0.749
		c-0.176,0.296-0.047,0.943-0.084,1.29c-0.204,1.882-1.134,3.578-1.767,5.332c-0.616,1.717-0.882,3.576-0.373,5.358
		c0.213,0.749,0.562,1.496,1.01,2.136c0.071,0.1,0.671,0.658,0.642,0.727c-0.086,0.213-0.253,0.085-0.368-0.011
		c-0.705-0.591-1.243-1.45-1.771-2.199c-0.385-0.553-0.684-1.157-1.043-1.728c-0.13-0.201-0.193-0.529-0.431-0.64
		c-0.277-0.138-0.346-0.637-0.498-0.888c-0.389-0.64-0.842-1.248-1.26-1.872c-0.15-0.226-0.34-0.472-0.608-0.558
		c-0.424-0.137-0.194-0.473-0.462-0.783c-0.329-0.383-0.727-0.698-1.008-1.123c-0.071-0.107-0.241-0.357-0.106-0.478
		c0.13-0.119,0.265-0.231,0.378-0.368c0.104-0.129,0.107-0.337,0.237-0.446c0.544-0.109,1.131-0.676,1.523-1.07
		c0.457-0.458,0.844-0.99,1.361-1.386c0.527-0.401,1.092-0.751,1.494-1.29c0.204-0.272,0.174-0.527,0.457-0.713
		c0.396-0.26,0.637-0.602,0.889-0.995c0.086-0.135,0.303-0.662,0.458-0.724c0.424-0.17,0.847-0.999,1.118-1.359
		C36.628,16.237,36.961,16.797,36.928,17.463C36.896,17.454,36.96,16.809,36.928,17.463z"/>
	<path fill="#A6B2A3" d="M34.476,27.907c0.158,0,0.458,0.262,0.633,0.312c0.271,0.078,0.553,0.112,0.831,0.142
		c0.322,0.036,0.641,0.088,0.96,0.14c0.238,0.037,0.652-0.048,0.853,0.085c-0.196,0.243-0.182,0.591-0.223,0.886
		c-0.055,0.404,0.229,1.018,0.064,1.384c-0.164,0.369-1.053,0.314-1.386,0.314c-0.659,0-1.655-0.144-1.803-0.933
		C34.359,29.988,34.202,27.907,34.476,27.907z"/>
	<path fill="#A6B2A3" d="M34.721,31.238c0.496,0,0.968,0.164,1.476,0.161c0.368-0.001,1.204-0.271,1.521-0.055
		c0.86,0.59,0.927,1.338,0.279,2.088c-0.302,0.35-0.715,0.683-1.183,0.75c-0.594,0.084-1.015-0.469-1.33-0.895
		C35.347,33.1,34.176,31.238,34.721,31.238z"/>
	<path fill="#A6B2A3" d="M37.303,17.308c0.451,0.262,0.05,1.359,0.085,1.77c0.033,0.371,0.03,1.375,0.361,1.611
		c0.16,0.114,0.297-1.109,0.303-1.275c0.012-0.299,0.51-0.28,0.406-0.728c-0.05-0.22-0.246-0.362-0.47-0.362
		c-0.182,0-0.281,0.203-0.45,0.203c0.038-0.264,0.065-0.529,0.079-0.795c0.081-0.02,0.531,0.536,0.722,0.618
		c0.322,0.138,0.864,0.366,1.073,0.655c0.237,0.329,0.193,0.939,0.265,1.323c0.114,0.625,0.258,1.244,0.384,1.867
		c0.24,1.199,0.312,2.305-0.15,3.463c-0.198,0.496-0.453,1.02-0.847,1.388c-0.355,0.338-0.506,0.746-0.962,1.002
		c-0.731,0.414-2.295,0.25-3.027-0.166c-0.695-0.394-0.254-1.342-0.021-1.886c0.41-0.958,0.761-1.957,1.126-2.934
		c0.403-1.08,0.643-2.214,0.573-3.373c0.699,0.117-0.225-0.8,0.225-1.101C37.381,18.321,37.043,17.67,37.303,17.308z"/>
	<path fill="#A6B2A3" d="M38.85,32.697c0.745,0,0.698,1.216,0.674,1.67c-0.045,0.824-0.662,0.95-1.342,0.626
		c-0.247-0.117-0.515-0.172-0.761-0.296c-0.434-0.217-0.272-0.321,0.068-0.562c0.304-0.217,0.586-0.434,0.791-0.748
		C38.38,33.237,38.634,32.697,38.85,32.697z"/>
	<path fill="#A6B2A3" d="M39.664,27c-0.004,0.001-0.028,0.477-0.034,0.52c-0.063,0.384-0.159,0.763-0.267,1.136
		c-0.227,0.779-0.503,1.655-1.025,2.29c-0.297,0.359-0.347-0.336-0.37-0.562c-0.057-0.526-0.102-1.079,0.105-1.581
		c0.198-0.458,0.609-0.707,0.919-1.071C39.135,27.564,39.431,27.034,39.664,27z"/>
	<path fill="#A6B2A3" d="M40.304,32.998c0.653,0,1.029,0.832,1.177,1.365c0.34,0.343-0.909,0.718-1.063,0.757
		c-0.133,0.034-0.641,0.163-0.691-0.03c-0.062-0.243,0.034-0.548,0.078-0.787C39.893,33.851,39.578,32.998,40.304,32.998z"/>
	<path fill="#A6B2A3" d="M42.151,31.583c0.308,0.125,0.607,0.274,0.936,0.344c0.159,0.037,0.354,0.042,0.491,0.148
		c0.253,0.197-0.343,1.286-0.635,1.286c-0.366,0-0.703-0.561-0.91-0.806c-0.125-0.146-0.328-0.233-0.412-0.412
		C41.499,31.885,41.984,31.649,42.151,31.583z"/>
	<path fill="#A6B2A3" d="M43.276,28.904c0.74,0,0.795,0.413,0.854,1.017c-0.011,0.541,0.119,1.804-0.695,1.804
		c-0.6,0-1.317-0.311-1.058-0.978C42.536,30.341,42.739,28.904,43.276,28.904z"/>
	<path fill="#A6B2A3" d="M43.012,24.653c0.427,0,0.356,0.782,0.319,1.011c-0.007,0.042-0.086,0.525,0.088,0.337
		c0.096-0.213,0.13-0.423,0.274-0.613c0.432-0.57,0.404,0.401,0.449,0.702c0.111,0.768,0.172,1.482,0.027,2.249
		c-0.084,0.48-0.698,0.421-1.028,0.213c-0.311-0.195-0.466-1.223-0.512-1.552C42.608,26.84,42.625,24.653,43.012,24.653z"/>
	<path fill="#A6B2A3" d="M39,17.272v-0.037C39,17.249,39,17.262,39,17.272z"/>
	<path fill="#A6B2A3" d="M41.011,32.871c0.086-0.575,0.662-0.301,0.939-0.103c0.181,0.132,0.354,0.283,0.494,0.462
		c0.015,0.017,0.236,0.443,0.179,0.436c-0.064,0.255-0.453,0.629-0.728,0.613C41.646,34.267,40.976,33.114,41.011,32.871z"/>
	<path fill="#A6B2A3" d="M11.427,8.75c-0.401,0.588-1.015,0.935-1.712,1.02c-0.172,0.021-0.35,0.011-0.522,0.04
		c-0.263,0.044-0.525,0.807-0.616,1.029c-0.269,0.667-0.601,1.687,0.048,2.241c0.218,0.186,0.502,0.258,0.783,0.254
		c0.072-0.001,0.451-0.112,0.499-0.08c-0.192,0.565-0.929,0.615-1.399,0.411c-0.389-0.168-0.715-0.924-1.142-0.906
		c0.04,0.254,0.198,0.468,0.246,0.72c-0.02,0.272-0.056,0.543-0.117,0.809c-0.087,0.386-0.225,0.762-0.436,1.097
		c-0.348,0.552-0.887,0.935-1.514,1.097C4.908,16.647,3.504,16.719,3,16.144c1.315,0.486,3.686-0.417,3.853-2.01
		c0.077-0.738-0.653-1.259-0.712-1.973c-0.028-0.333,0.019-0.734,0.195-1.025c0.088-0.147,0.687-0.585,0.62-0.763
		c-0.094-0.248-0.861,0.405-0.929,0.481c-0.33,0.37-0.581,0.852-0.683,1.339c-0.102,0.489-0.06,0.983,0.2,1.416
		c0.137,0.228,0.315,0.427,0.504,0.611c0.29,0.282,0.483,0.301,0.182,0.66c-0.362,0.43-0.839,0.718-1.354,0.924
		c-0.285,0.115-0.355-0.031-0.498-0.269c-0.518-0.852-0.703-1.997-0.52-2.971c0.396-2.096,2.006-3.648,4.021-4.188
		c0.706-0.189,1.384-0.251,2.103-0.157C10.148,8.24,11.606,8.409,11.427,8.75C10.57,10.005,11.647,8.331,11.427,8.75z"/>
	<path fill="#A6B2A3" d="M12.915,14.007c0.462,0.035,0.314,1.671,0.253,1.893c-0.222,0.803-0.796,1.503-1.463,1.98
		c-1.857,1.328-4.2,0.638-5.823-0.667c-0.093-0.076-0.51-0.298-0.271-0.414c0.231-0.107,0.48-0.165,0.715-0.26
		c0.496-0.214,0.424-0.077,0.835,0.271c0.443,0.373,0.86,0.337,1.404,0.337c0.196,0,0.428,0.011,0.56,0.182
		c0.045,0.058,0.229,0.462,0.062,0.462c-0.13,0-0.251-0.087-0.387-0.087c-0.225,0-0.067,0.195,0.023,0.23
		c0.332,0.13,0.781,0.087,1.118,0.02c0.46-0.09,1.035-0.271,1.339-0.657c0.138-0.177,0.208-0.406,0.299-0.61
		c0.139-0.312,0.01-0.632,0.128-0.93c0.353,0.502,0.146,0.73,0.198,1.26c0.018,0.19,0.426-0.189,0.46-0.225
		C13.081,16.059,13.188,14.959,12.915,14.007z"/>
	<path fill="#A6B2A3" d="M8.984,15.249c-0.43,0.393-1.125,0.645-1.685,0.394c0.104-0.29,0.203-0.335,0.486-0.277
		C8.199,15.45,8.584,15.342,8.984,15.249z"/>
	<path fill="#A6B2A3" d="M12.671,5.884c0.443,0,0.86,0.984,0.949,1.323c0.143,0.555,0.067,1.141-0.149,1.666
		c-0.501,1.219-1.707,2.202-3.031,2.3c-0.272,0.021-1.247,0.047-1.341-0.296c-0.113-0.413,0.449-0.803,0.777-0.82
		c0.611-0.029,1.233-0.233,1.662-0.703c0.444-0.487,0.523-1.168,0.735-1.768c0.223,0.162,0.068,0.751,0.034,0.975
		c-0.027,0.176-0.069,0.391-0.003,0.563c0.109,0.289,0.476-0.335,0.519-0.411c0.27-0.472,0.393-1.036,0.333-1.579
		c-0.026-0.243-0.095-0.48-0.206-0.699C12.92,6.377,12.564,5.884,12.671,5.884z"/>
	<path fill="#A6B2A3" d="M10.761,17.167l0.005,0.094C10.764,17.238,10.763,17.206,10.761,17.167z"/>
	<path fill="#A6B2A3" d="M10.768,17.301l-0.001-0.02C10.767,17.291,10.768,17.297,10.768,17.301z"/>
	<path fill="#A6B2A3" d="M11.068,16.354c0.044,0.07,0.257,0.321,0.224,0.392c-0.104,0.224-0.304,0.56-0.586,0.56
		c-0.008-0.512,0.012-1.027,0.065-1.536c0.05-0.472,0.112-1.553,0.671-1.741C11.153,14.652,10.722,15.686,11.068,16.354z"/>
	<path fill="#A6B2A3" d="M32.773,4.402l-0.28-0.1C32.508,4.305,32.631,4.333,32.773,4.402z"/>
	<path fill="#A6B2A3" d="M39.021,16.409c-0.046,0.069-0.259,0.321-0.225,0.392c0.104,0.224,0.304,0.56,0.586,0.56
		c0.009-0.513-0.011-1.028-0.065-1.537c-0.049-0.471-0.112-1.553-0.672-1.741C38.935,14.708,39.367,15.741,39.021,16.409z"/>
	<path fill="#A6B2A3" d="M35.574,3.41c-0.155,0.28-0.396,0.517-0.7,0.624c-0.332,0.117-0.614,0.008-0.606,0.451
		c0.009,0.602-0.34,1.17-0.95,1.277c0.279-0.589,0.048-1.407-0.544-1.691c0.049,0.017,0.096,0.033,0.143,0.05
		c-0.154-0.067-0.417-0.219-0.595-0.185c0.821,1.205,0.877,2.826-0.051,3.99c-1.29,1.241-3.178,0.701-4.579-0.031
		c0.328-0.197,0.665-0.411,1.049-0.473c0.383-0.066,0.742,0.149,1.102,0.236c0.64,0.155,1.324-0.107,1.677-0.671
		c0.705-1.131,0.125-2.801-1.064-3.327c-1.331-0.589-2.797,0.123-3.391,1.39c-0.364,0.777-0.418,1.645-0.271,2.483
		c0.152,0.88,0.675,1.407,1.079,2.164c-0.314,0.215-0.966,0.068-1.33,0.143c-0.244,0.05-0.729,0.389-0.964,0.298
		c-1.263-0.492-2.398-0.474-3.706-0.06c-0.007-0.329,0.397-0.614,0.469-0.943c0.136-0.627,0.317-0.278,0.801-0.278
		c0.2,0,0.364-0.116,0.536-0.202c0.342-0.171,0.515,0.042,0.849,0.042c0.264,0,0.41-0.284,0.652-0.284
		c0.113,0,0.497,0.134,0.584-0.017c0.043-0.075-0.353-0.18-0.396-0.193c-0.358-0.106-0.284,0.034-0.571,0.209
		c-0.275,0.166-0.535-0.045-0.818-0.045c-0.275,0-0.526,0.325-0.796,0.252c0.011-0.34,0.315-0.61,0.359-0.96
		c0.058-0.47,0.08-0.949,0.037-1.42c-0.082-0.884-0.419-1.675-1.19-2.161c-1.245-0.784-3.566-0.283-3.86,1.336
		c-0.069,0.383,0.008,0.742,0.151,1.097c0.176,0.434,0.288,0.542-0.231,0.502c-0.888-0.068-1.004-0.689-0.993-1.487
		c0.006-0.382,0.338-0.811,0.299-1.163c-0.043-0.402-0.791-0.039-0.926,0.08c-0.283,0.246-0.392,0.559-0.422,0.921
		c-0.006,0.074-0.009,0.766,0.076,0.756c-0.293,0.032-0.726-0.696-0.817-0.899c-0.087-0.193-0.155-0.453-0.082-0.661
		c0.027-0.096,0.386-0.389,0.385-0.396C14.926,3.94,14.084,3.125,14.397,2c0.099,0.998,0.722,1.701,1.729,1.758
		c0.345,0.019,0.716,0,1.056-0.036c0.867-0.094,1.547-0.563,2.337-0.879c1.376-0.549,3.281-0.366,4.463,0.557
		c0.579,0.452,1.045,1.057,1.279,1.758c0.074,0.224,0.391,2.06,0.555,2.06c0.217,0-0.141-1.665-0.174-1.787
		c-0.087-0.317-0.193-0.629-0.333-0.926c-0.091-0.192-0.17-0.202-0.046-0.399c0.114-0.18,0.243-0.352,0.385-0.51
		c0.874-0.964,2.188-1.312,3.448-1.222c1.245,0.088,2.178,0.69,3.303,1.16C33.81,4.122,35.596,3.821,35.688,2
		C35.985,2.371,35.778,3.043,35.574,3.41C35.354,3.803,35.764,3.07,35.574,3.41z"/>
	<path fill="#A6B2A3" d="M38.571,8.75c0.402,0.588,1.016,0.935,1.712,1.02c0.172,0.021,0.351,0.011,0.521,0.04
		c0.265,0.044,0.526,0.807,0.616,1.029c0.27,0.667,0.6,1.687-0.048,2.241c-0.219,0.186-0.501,0.258-0.783,0.254
		c-0.072-0.001-0.45-0.112-0.499-0.08c0.191,0.565,0.928,0.615,1.399,0.411c0.39-0.168,0.716-0.924,1.141-0.906
		c-0.039,0.254-0.196,0.468-0.246,0.72c0.022,0.272,0.059,0.543,0.119,0.809c0.087,0.386,0.225,0.762,0.436,1.097
		c0.348,0.552,0.887,0.935,1.515,1.097c0.637,0.165,2.041,0.237,2.546-0.339c-1.315,0.486-3.687-0.417-3.854-2.01
		c-0.077-0.738,0.652-1.259,0.712-1.973c0.027-0.333-0.018-0.734-0.194-1.025c-0.088-0.147-0.686-0.585-0.621-0.763
		c0.094-0.248,0.861,0.405,0.93,0.481c0.331,0.37,0.58,0.852,0.683,1.339c0.102,0.489,0.06,0.983-0.2,1.416
		c-0.137,0.228-0.315,0.427-0.505,0.611c-0.289,0.282-0.482,0.301-0.182,0.66c0.362,0.43,0.839,0.718,1.354,0.924
		c0.285,0.115,0.354-0.031,0.499-0.269c0.517-0.852,0.701-1.997,0.518-2.971c-0.395-2.096-2.005-3.648-4.021-4.188
		c-0.706-0.189-1.384-0.251-2.102-0.157C39.85,8.24,38.393,8.409,38.571,8.75C39.427,10.005,38.351,8.331,38.571,8.75z"/>
	<path fill="#A6B2A3" d="M33.167,6.806C33.143,6.782,33.182,6.934,33.167,6.806C33.167,6.807,33.166,6.796,33.167,6.806z"/>
	<g>
		<path fill="#A6B2A3" d="M36.946,41.505c-0.114-0.055-0.645,0.462-0.735,0.536c-0.38,0.301-1.102,0.48-0.282-0.034
			c0.57-0.36,0.988-0.622,0.873-1.341c-0.024-0.15-0.039-0.393-0.166-0.497c-0.134-0.11-0.585,0.319-0.739,0.386
			c-0.115,0.049-0.239,0.052-0.117-0.091c0.211-0.248,0.567-0.39,0.692-0.708c0.038-0.096,0.017-0.779-0.127-0.779
			c-0.16,0-0.38,0.208-0.504,0.295c-1.14,0.803-2.628,1.143-3.979,1.403c-1.641,0.317-3.346,0.397-5.013,0.499
			c-1.553,0.095-3.094,0.148-4.649,0.021c-2.936-0.243-6.375-0.53-8.739-2.503c-0.266,0.483-0.233,0.668,0.173,1.064
			c0.145,0.141,0.909,0.604,0.831,0.898c-0.009,0.034-0.887-0.486-0.962-0.557c-0.353-0.335-0.477-0.542-0.716-0.024
			c-0.239,0.515,0.313,0.95,0.666,1.245c0.17,0.141,0.809,0.739,1.007,0.729c-0.233,0.014-0.615-0.267-0.807-0.371
			c-0.173-0.096-1.188-0.808-1.227-0.711c-0.225,0.577-0.202,0.828,0.291,1.245c0.499,0.424,1.094,0.745,1.674,1.041
			c2.688,1.359,5.684,1.765,8.654,1.92c1.397,0.072,2.759,0.072,4.156-0.005c1.412-0.078,2.793-0.038,4.187-0.339
			c1.282-0.279,2.604-0.684,3.76-1.316c0.571-0.308,1.112-0.624,1.635-1.012C36.938,42.387,37.332,41.625,36.946,41.505z"/>
		<path fill="#A6B2A3" d="M36.946,41.505C37.048,41.537,36.945,41.505,36.946,41.505L36.946,41.505z"/>
	</g>
</g>
<g>
	<path fill="#EEEEE2" d="M25.146,77.138c-0.115,0-0.6,0.402-0.673,0.499c-0.203,0.263-0.198,0.434-0.508,0.638
		c-0.707,0.464-1.117,1.29-1.856,1.711c-0.275,0.156-0.312,0.377-0.51,0.607c-0.226,0.26-0.511,0.463-0.784,0.668
		c-0.638,0.479-1.269,1.26-2.017,1.544c-1.743,1.584-3.595,2.616-3.478,2.741c2.541,2.116,6.641,4.036,7.346,4.568
		c0.303,0.227,0.578,0.593,0.925,0.74c0.354,0.153,2.152,0.066,3.344-0.123c0.178-0.221,0.268-0.484,0.466-0.693
		c0.266-0.278,6.884-3.842,7.59-4.693c-0.479-0.341-0.982-0.627-1.446-0.98c-0.461-0.353-1.026-0.461-1.456-0.899
		c-0.387-0.399-0.852-0.688-1.254-1.082c-0.45-0.443-0.959-0.831-1.35-1.335c-0.138-0.177-0.274-0.359-0.438-0.512
		c-0.202-0.188-0.477-0.233-0.672-0.422c-0.383-0.368-0.729-0.789-1.109-1.168c-0.372-0.374-0.858-0.629-1.213-1.017
		C25.841,77.697,25.499,77.138,25.146,77.138z"/>
	<path fill="#EEEEE2" d="M42.293,88.765c0.057,0.274-1.347,0.864-1.57,0.977c-0.64,0.317-1.275,0.599-1.984,0.711
		c-0.339,0.055-1.394,0.312-1.599-0.066c-0.49-0.909-0.046-2.391-1.295-2.769c-1.213-0.365-2.487,0.319-3.724-0.024
		c0.641-0.326,1.258-0.704,1.838-1.13c0.738,0.325,1.587,0.483,2.38,0.598c1.444,0.212,3.045-0.206,4.322-0.879
		c0.614-0.324,0.401,0.078,0.102,0.396c-0.246,0.261-0.498,0.495-0.774,0.724c-0.192,0.16-1.791,1.269-1.689,1.525
		c0.064,0.146,1.88-0.069,2.059-0.076C40.516,88.743,42.256,88.595,42.293,88.765C42.329,88.936,42.263,88.623,42.293,88.765z"/>
	<path fill="#EEEEE2" d="M31.536,88.599c-0.156-0.159-0.277-0.546-0.065-0.641c0.108-0.048,0.214-0.098,0.32-0.151
		c0.141,0.054,0.302,0.154,0.452,0.178c0.685,0.12,1.39,0.004,2.068-0.103c0.645-0.099,1.311-0.149,1.895,0.2
		c0.582,0.342-0.626,1.084-0.872,1.221c-0.802,0.444-1.735,0.689-2.62,0.904c-0.193,0.046-0.922,0.3-0.984,0.007
		c-0.063-0.295-0.401-0.98-0.206-1.263c0,0.021,0.166,0.048,0.009-0.013c1.201,0.451,2.188,0.033,3.353-0.204
		c-0.005-0.3-1.46,0.134-1.636,0.154C32.79,88.939,31.894,88.974,31.536,88.599C31.443,88.505,31.729,88.802,31.536,88.599z"/>
	<path fill="#EEEEE2" d="M13.632,66.02c-0.16,0-0.369,0.42-0.435,0.533c-0.193,0.328-0.204,0.593-0.13,0.959
		c0.334-0.139,0.29,0.188,0.272,0.477c-0.008,0.123,0.093,0.117,0.113,0.221c0.039,0.183,0.027,0.373,0.021,0.557
		c-0.014,0.326,0.007,0.484,0.166,0.75c0.177,0.296,0.049,0.943,0.086,1.289c0.204,1.883,1.133,3.578,1.765,5.332
		c0.618,1.717,0.884,3.576,0.375,5.358c-0.213,0.749-0.564,1.496-1.012,2.136c-0.07,0.1-0.669,0.658-0.641,0.727
		c0.086,0.212,0.253,0.085,0.369-0.011c0.705-0.591,1.244-1.45,1.769-2.199c0.388-0.553,0.685-1.157,1.045-1.728
		c0.128-0.201,0.194-0.529,0.429-0.64c0.279-0.138,0.346-0.637,0.498-0.888c0.39-0.64,0.844-1.248,1.26-1.872
		c0.151-0.226,0.34-0.472,0.611-0.558c0.422-0.137,0.193-0.473,0.461-0.783c0.329-0.383,0.726-0.699,1.008-1.123
		c0.071-0.107,0.241-0.357,0.105-0.478c-0.13-0.118-0.265-0.231-0.377-0.368c-0.105-0.129-0.107-0.337-0.238-0.445
		c-0.778-0.156-1.536-1.068-2.052-1.645c-0.632-0.705-1.487-1.141-2.112-1.838c-0.115-0.127-0.215-0.265-0.315-0.402
		c-0.118-0.16-0.321-0.158-0.479-0.252c-0.385-0.234-0.738-0.52-1.056-0.841s-0.6-0.675-0.849-1.05
		C14.222,67.137,13.61,66.02,13.632,66.02z"/>
	<path fill="#EEEEE2" d="M37.128,64.008c-0.476,0.036-0.299,1.646-0.23,1.87c0.25,0.815,0.844,1.562,1.53,2.054
		c1.897,1.363,4.277,0.473,5.885-0.842c0.24-0.197,0.248-0.25-0.057-0.361c-0.232-0.086-0.479-0.141-0.694-0.268
		c-0.354-0.211-0.55,0.27-0.826,0.461c-0.475,0.328-0.938,0.176-1.47,0.236c-0.242,0.025-0.638,0.633-0.409,0.633
		c0.129,0,0.25-0.086,0.386-0.086c0.226,0,0.067,0.194-0.023,0.229c-0.331,0.13-0.78,0.087-1.116,0.021
		c-0.461-0.091-1.035-0.271-1.339-0.657c-0.141-0.177-0.209-0.405-0.3-0.61c-0.14-0.312-0.012-0.631-0.129-0.93
		c-0.353,0.502-0.146,0.73-0.196,1.26c-0.019,0.192-0.41-0.201-0.442-0.234C37.008,66.04,36.803,64.964,37.128,64.008z"/>
	<path fill="#EEEEE2" d="M43.465,58.265c-0.19,0.233-0.956-0.2-1.194-0.323c-0.199-0.104-0.101-0.241-0.06-0.425
		c0.152-0.669,0.128-1.384-0.252-1.976c-0.261-0.409-0.653-0.713-1.08-0.931c-0.237-0.122-0.687-0.392-0.956-0.313
		c-0.345,0.096,0.172,0.264,0.241,0.285c0.282,0.082,1.273,0.74,0.828,1.084c-0.131,0.101-0.345,0.119-0.426,0.28
		c-0.146,0.291,0.178,0.646,0.332,0.856c-0.649,0-1.089-0.923-1.371-1.386c-0.457-0.745-1.109-1.152-1.97-0.749
		c-0.905,0.424-1.399,1.346-2.098,2.016c-0.758,0.725-1.608,0.877-2.587,1.073c0.133-0.282,0.258-0.583,0.271-0.897
		c0.014-0.264-0.064-0.598,0.236-0.65c1.138-0.203,1.732-0.963,2.413-1.832c0.948-1.212,2.355-1.779,3.867-1.656
		c1.045,0.086,2.119,0.745,2.851,1.467C43.617,55.279,43.96,56.787,43.465,58.265z"/>
	<path fill="#EEEEE2" d="M33.164,56.847c-0.006,0.213-0.021,0.421-0.073,0.628C33.119,57.266,33.143,57.057,33.164,56.847
		C33.163,56.869,33.143,57.07,33.164,56.847z"/>
	<path fill="#EEEEE2" d="M41.092,65.248c0.431,0.394,1.125,0.645,1.687,0.395c-0.104-0.289-0.204-0.335-0.487-0.277
		C41.88,65.449,41.492,65.342,41.092,65.248z"/>
	<path fill="#EEEEE2" d="M37.371,55.884c-0.443,0-0.861,0.984-0.947,1.323c-0.145,0.555-0.068,1.141,0.147,1.665
		c0.501,1.219,1.707,2.202,3.031,2.3c0.272,0.021,1.245,0.047,1.34-0.296c0.113-0.413-0.448-0.804-0.778-0.819
		c-0.611-0.029-1.232-0.233-1.659-0.703c-0.445-0.486-0.523-1.168-0.735-1.768c-0.224,0.162-0.069,0.751-0.034,0.975
		c0.026,0.176,0.068,0.391,0.003,0.563c-0.11,0.288-0.476-0.335-0.519-0.411c-0.271-0.471-0.394-1.035-0.335-1.578
		c0.028-0.243,0.097-0.48,0.207-0.699C37.123,56.377,37.479,55.884,37.371,55.884z"/>
	<path fill="#EEEEE2" d="M38.278,85.38c-0.544-0.097-1.06,0.048-1.6-0.129c-0.76-0.251-1.572-0.591-2.121-1.198
		c-0.607-0.676-1.058-1.421-1.552-2.174c-0.25-0.376-0.375-0.823-0.645-1.185c-0.289-0.398-0.44,0.149-0.706,0.261
		c-0.063-0.188,0.188-0.515,0.213-0.71c0.048-0.351-0.114-0.64-0.294-0.924c-0.364-0.577-0.819-1.096-1.209-1.655
		c-0.137-0.197-0.802-1.269-1.1-0.857c-0.192,0.263-0.555,0.58-0.411,0.027c0.157-0.594,0.17-0.82-0.17-1.362
		c-0.372-0.594-0.81-1.151-1.234-1.708c-0.221-0.286-0.447-0.568-0.687-0.838c-0.129-0.144-0.489-0.653-0.699-0.653
		c-0.163,0-0.565,1.24-0.795,1.419c-0.023-0.303,0.271-0.73,0.343-1.039c0.094-0.397,0.157-0.803-0.055-1.174
		c-0.184-0.322-0.491-0.551-0.741-0.818c-0.295-0.311-0.551-0.656-0.812-0.996c-0.227-0.297-0.456-0.592-0.716-0.861
		c-0.168-0.173-0.607-0.67-0.869-0.67c-0.299,0-0.6,0.964-0.939,1.088c0.23-0.486,0.754-1.106,0.493-1.674
		c-0.241-0.521-0.823-0.936-1.175-1.389c-0.362-0.464-0.725-0.961-1.234-1.272c-0.568-0.349-0.648,1.075-0.967,0.888
		c0.207-0.455,0.513-1.074,0.431-1.588c-0.065-0.412-0.671-0.805-0.936-1.1c-0.36-0.407-0.686-0.814-1.274-0.757
		c-0.48,0.048-0.954,0.245-1.443,0.192c-0.546-0.061-0.806-0.537-1.028-0.986c-0.211-0.425-0.39-0.875-0.693-1.246
		c-0.31-0.379-0.441-0.205-0.75,0.104c-0.228,0.229-0.375,0.352-0.075,0.571c0.405,0.295,0.63,0.698,0.873,1.135
		c0.269,0.487,0.49,1.05,0.504,1.614c0.017,0.604-0.196,1.188-0.165,1.79c0.074,1.103,1.05,2.164,1.82,2.874
		c0.297,0.271,0.741,0.568,1.16,0.45c0.102-0.028,0.884-0.347,0.939-0.253c0.073,0.111-0.529,0.505-0.609,0.563
		c-0.344,0.255,0.48,0.854,0.647,0.983c0.453,0.351,0.965,0.635,1.349,1.07c0.441,0.508,0.91,1.012,1.454,1.412
		c0.516,0.381,0.884,0.031,1.401-0.139c0.477-0.155,0.275,0.129,0.016,0.285c-0.152,0.092-0.621,0.277-0.523,0.529
		c0.191,0.496,0.93,0.956,1.327,1.282c0.533,0.438,1.041,0.909,1.569,1.354c0.246,0.21,0.536,0.414,0.761,0.645
		c0.189,0.194,0.299,0.43,0.59,0.485c0.473,0.093,0.877-0.129,1.28-0.326c0.497-0.245,0.16,0.133-0.06,0.29
		c-0.168,0.122-0.805,0.323-0.654,0.585c0.322,0.54,0.857,0.913,1.327,1.311c0.366,0.308,0.723,0.883,1.198,1.012
		c0.402,0.106,0.858-0.401,1.214-0.236c-0.233,0.229-0.608,0.34-0.812,0.558c-0.162,0.174,0.771,0.957,0.906,1.08
		c0.375,0.342,0.744,0.702,1.142,1.017c0.176,0.14,0.376,0.283,0.59,0.355c0.223,0.07,0.459-0.127,0.673-0.027
		c-0.008,0.226-0.203,0.299-0.37,0.389c0.326,0.411,0.769,0.72,1.212,0.99c0.583,0.359,1.143,0.81,1.775,1.08
		c0.497,0.214,1.109,0.423,1.654,0.438C37.117,85.565,38.365,85.541,38.278,85.38C38.125,85.353,38.353,85.518,38.278,85.38z
		 M16.144,64.657c-0.457,0.371-1.096,0.966-1.698,0.923c-0.167,0-0.289-0.096-0.063-0.229c0.341-0.201,0.676-0.312,0.993-0.559
		c0.4-0.312,0.836-0.633,1.193-0.996c0.188-0.189,0.478-1.031,0.774-1.031c0.222,0-0.274,0.949-0.325,1.019
		C16.774,64.119,16.465,64.401,16.144,64.657C15.798,64.939,16.684,64.229,16.144,64.657z"/>
	<path fill="#EEEEE2" d="M37.519,60.586c-0.274-0.217-0.436-0.555-0.717-0.766c-0.283-0.215-0.663,0.249-0.835,0.445
		c-0.562,0.642-0.752,1.95-1.752,1.95c-0.444,0-0.894-0.147-1.335-0.074c-0.598,0.101-1.051,0.573-1.416,1.022
		c-0.29,0.356-0.691,0.768-0.674,1.264c0.004,0.145,0.496,1.055,0.487,1.055c-0.374,0-0.48-0.738-0.87-0.738
		c-0.459,0-1.064,1.026-1.326,1.348c-0.398,0.49-0.957,0.962-1.065,1.618c-0.049,0.286,0.036,0.565,0.107,0.841
		c0.067,0.258,0.305,0.475,0.336,0.729c-0.021-0.07-0.091-0.01-0.043,0.012c-0.291-0.104-0.487-0.546-0.63-0.793
		c-0.182-0.316-0.202-0.605-0.564-0.322c-0.294,0.23-1.883,2.473-1.699,2.641c0.394,0.361,0.628,0.922,1.009,1.326
		c0.417,0.442,0.872,0.848,1.245,1.329c0.238,0.306,0.273,0.497,0.579,0.132c0.091-0.107,0.464-0.443,0.234-0.58
		c-0.375-0.225-0.893-0.225-1.092-0.703c0.171-0.072,0.406,0.191,0.601,0.191c0.484,0,0.659,0.282,1.177,0.047
		c0.938-0.426,1.549-1.436,2.322-2.086c0.221-0.186,1.739-1.353,1.091-1.666c-0.235-0.113-0.454-0.146-0.677-0.299
		c-0.043-0.029-0.674-0.58-0.502-0.58c0.113,0,0.373,0.268,0.471,0.332c0.252,0.166,0.524,0.289,0.824,0.326
		c0.423,0.045,0.943-0.18,1.197-0.521c0.115-0.151,0.647-0.711,0.665-0.906c0.037-0.427,0.727-0.889,0.957-1.236
		c0.699-1.045,0.079-2.006,0.179-3.128c0.042-0.477,0.549-1.136,0.86-1.476C36.723,61.25,37.605,60.659,37.519,60.586
		C37.324,60.433,37.668,60.71,37.519,60.586z M34.379,65.189c-0.521-0.355-0.905-0.775-1.247-1.295
		c-0.205-0.31-0.704-0.895-0.664-1.296c0.023-0.216,0.28,0.176,0.295,0.203c0.167,0.276,0.317,0.526,0.519,0.781
		c0.647,0.827,1.579,1.37,2.381,2.032C35.222,65.731,34.725,65.426,34.379,65.189z"/>
	<path fill="#EEEEE2" d="M25.989,60.338c0.566,0.279,1.145,0.592,1.471,1.161c-0.118,0.06-1.694-1.401-3.849-1.426
		c-3.233,0.245-5.29,2.249-5.229,2.398c0.237,0.534,0.875,0.886,1.088,1.447c0.122,0.321,0.362,0.404,0.631,0.624
		c0.368,0.301,0.626,0.723,0.927,1.086c0.389,0.473,1.187,0.98,1.327,1.603c0.092,0.413,0.804,0.574,1.068,0.876
		c0.539,0.615,1.04,1.406,1.694,1.901c0.083,0.062,1.099-1.474,1.229-1.653c0.233-0.323,0.474-0.72,0.802-0.957
		c0.092-0.068,0.209-0.088,0.307-0.152c0.14-0.094,0.115-0.312,0.188-0.453c0.332-0.635,1.007-1.168,1.472-1.702
		c0.271-0.31,0.484-0.681,0.794-0.958c0.099-0.088,0.233-0.113,0.35-0.172c0.193-0.099,0.217-0.355,0.31-0.533
		c0.205-0.387,0.484-0.732,0.793-1.039C31.604,62.143,29.4,59.25,25.989,60.338z"/>
	<path fill="#EEEEE2" d="M30.003,55.746c-0.78,0-1.469,0.231-2.181,0.541c-0.339,0.148-0.809,0.354-0.792,0.664
		c0.014,0.246-0.08,0.814,0.307,0.715c0.281-0.072,0.527-0.245,0.796-0.355c0.731-0.299,1.554-0.328,2.302-0.07
		c0.652,0.224,0.974-0.352,1.105-0.927C31.682,55.729,30.301,55.746,30.003,55.746z"/>
	<path fill="#EEEEE2" d="M25.76,95.639c-0.396,0-0.873-0.166-0.883,0.337c-0.01,0.533,0.099,1.119,0.304,1.611
		c0.058,0.138,0.146,0.354,0.305,0.403c0.35,0.108,0.137-0.732,0.146-0.904C25.647,96.795,26.249,95.639,25.76,95.639z"/>
	<path fill="#EEEEE2" d="M22.325,74.661c-0.324,0-0.881,0.846-1.068,1.061c-0.215,0.248-0.483,0.478-0.466,0.837
		c0.02,0.371,0.26,0.699,0.444,1.007c0.001,0.001-0.18-0.015-0.21-0.035c-0.143-0.107-0.37-0.733-0.598-0.623
		c-0.507,0.248-0.922,1.025-1.241,1.473c-0.372,0.521-0.875,1.146-0.585,1.809c0.118,0.27-0.089,0.214-0.208,0.071
		c-0.254-0.297-0.529-0.007-0.693,0.236c-0.799,1.177-1.451,2.421-2.401,3.489c-0.504,0.569-1.048,1.012-1.756,1.293
		c-0.342,0.137-0.688,0.234-1.058,0.22c-0.284-0.013-0.645-0.078-0.901,0.08c1.025,0.558,2.466,0.099,3.42-0.406
		c0.576-0.305,1.068-0.736,1.601-1.105c0.482-0.339,1.02-0.658,1.37-1.148c-0.094-0.006-0.669-0.168-0.579-0.344
		c-0.001,0.004,0.761,0.042,0.824,0.029c0.48-0.099,0.813-0.392,1.176-0.704c0.639-0.553,1.572-0.941,1.936-1.758
		c-0.172-0.08-0.706-0.068-0.776-0.288c-0.045-0.139,0.706-0.036,0.763-0.036c0.764,0,1.025-0.598,1.479-1.099
		c0.088-0.099,1.264-1.051,1.089-1.141c-0.352-0.18-0.871-0.038-1.173-0.361c-0.217-0.235,0.298-0.097,0.351-0.081
		c0.274,0.081,0.543,0.22,0.833,0.188c0.4-0.042,1.147-0.274,0.704-0.736c-0.292-0.307-0.636-0.561-0.963-0.828
		C23.363,75.532,22.702,74.661,22.325,74.661z"/>
	<path fill="#EEEEE2" d="M10.35,52.881c-1.745,0-3.206,1.223-3.656,2.896c-0.195,0.73-0.174,1.525,0.154,2.215
		c0.172,0.361,0.97-0.111,1.286-0.181c-0.289-0.636-0.397-1.422-0.119-2.083c0.142-0.335,0.387-0.613,0.698-0.798
		c0.2-0.117,0.775-0.366,1.02-0.224c0.082,0.047-0.518,0.342-0.554,0.378c-0.171,0.173-0.188,0.495-0.092,0.707
		c0.076,0.175,0.368,0.142,0.395,0.351c0.035,0.279,0.059,0.546,0.312,0.715c0.092-0.643-0.116-1.297,0.465-1.795
		c0.586-0.498,1.451-0.51,2.119-0.16c1.153,0.602,2.016,1.588,3.086,2.312c1.194,0.805,2.588,1.389,4.05,1.216
		c0.739-0.09,1.395-0.491,2.056-0.805c0.292-0.138,0.592-0.265,0.904-0.351c0.24-0.064,0.745-0.025,0.886-0.273
		c0.284-0.497-0.105-0.87-0.586-0.826c-0.546,0.051-1.109,0.254-1.62,0.451c-1.338,0.52-2.563,1.043-3.979,0.412
		C14.669,55.92,13.381,52.881,10.35,52.881z"/>
	<path fill="#EEEEE2" d="M23.329,57.533c-0.298,0.173-0.6,0.346-0.927,0.456c-0.339,0.115-0.57,0.036-0.901,0.036
		c-0.351,0-0.652,0.26-0.958,0.396c-0.298,0.129-0.699,0.089-0.957,0.305c0.054,0.205,0.855,0.322,1.015,0.354
		c0.446,0.089,1.088,0.212,1.518-0.001c0.22-0.109,0.077-0.867,0.337-0.729c0.131,0.062,0.377,0.304,0.51,0.098
		C23.138,58.173,23.364,57.881,23.329,57.533z"/>
	<path fill="#EEEEE2" d="M12.488,89.749c-0.175,0.264-0.204,1.029-0.653,0.977c-0.702-0.085-1.45-0.156-2.112-0.424
		c-0.852-0.344-1.582-0.894-2.338-1.399c0.317-0.072,0.773,0.105,1.097,0.136c0.479,0.045,1-0.069,1.469-0.159
		c0.394-0.073,0.845-0.061,1.241-0.01c0.148,0.02,0.907,0.208,0.989,0.033c0.021-0.048-1.327-0.853-1.422-0.937
		c-0.359-0.312-0.682-0.687-1.083-0.942c-0.312-0.201-0.43-0.585-0.711-0.818c0.089-0.119,1.204,0.461,1.342,0.521
		c0.825,0.355,1.767,0.486,2.659,0.449c0.964-0.04,1.97-0.502,2.855-0.854c0.624,0.523,1.323,0.963,2.04,1.342
		c-1.21,0.155-2.352-0.339-3.573-0.102c-0.431,0.085-0.912,0.194-1.134,0.62C12.894,88.678,12.799,89.27,12.488,89.749
		C12.307,90.023,12.594,89.585,12.488,89.749z"/>
	<path fill="#EEEEE2" d="M17.544,88.049c0.223,0,0.439-0.083,0.641-0.17c0.243,0.12,0.615,0.147,0.5,0.446
		c-0.173,0.45-0.679,0.547-1.11,0.6c-0.189,0.023-2.153-0.138-2.128,0.04c0.091,0.263,1.216,0.284,1.452,0.312
		c0.449,0.056,0.86-0.013,1.301-0.102c0.424-0.086,0.247,0.325,0.183,0.633c-0.047,0.224-0.054,0.552-0.342,0.552
		c-0.362,0-0.735-0.14-1.074-0.253c-0.777-0.258-1.576-0.475-2.303-0.862c-0.333-0.176-0.656-0.391-0.903-0.682
		c-0.437-0.495,0.282-0.641,0.636-0.694c0.577-0.089,1.166-0.109,1.747-0.043C16.614,87.879,17.069,88.049,17.544,88.049z"/>
	<path fill="#EEEEE2" d="M15.629,77.907c-0.158,0-0.457,0.262-0.632,0.312c-0.271,0.078-0.553,0.112-0.831,0.142
		c-0.322,0.036-0.64,0.088-0.96,0.14c-0.237,0.037-0.651-0.048-0.853,0.085c0.198,0.243,0.183,0.591,0.224,0.886
		c0.054,0.404-0.229,1.018-0.065,1.384c0.165,0.369,1.053,0.314,1.387,0.314c0.658,0,1.655-0.144,1.802-0.933
		C15.747,79.988,15.903,77.907,15.629,77.907z"/>
	<path fill="#EEEEE2" d="M15.385,81.238c-0.497,0-0.968,0.164-1.476,0.161c-0.368-0.001-1.205-0.271-1.523-0.055
		c-0.859,0.59-0.925,1.338-0.277,2.088c0.3,0.35,0.715,0.683,1.182,0.75c0.592,0.084,1.015-0.469,1.329-0.895
		C14.761,83.1,15.929,81.238,15.385,81.238z"/>
	<path fill="#EEEEE2" d="M12.805,67.309c-0.453,0.262-0.051,1.358-0.087,1.77c-0.033,0.371-0.029,1.375-0.361,1.611
		c-0.159,0.114-0.297-1.109-0.303-1.275c-0.011-0.299-0.512-0.279-0.406-0.727c0.051-0.22,0.246-0.362,0.471-0.362
		c0.18,0,0.28,0.202,0.449,0.202c-0.039-0.264-0.066-0.528-0.08-0.795c-0.139-0.034-0.317,0.348-0.399,0.446
		c-0.093,0.118-0.317,0.167-0.448,0.228c-0.311,0.141-0.872,0.385-1.013,0.717c-0.178,0.42-0.157,0.993-0.244,1.439
		c-0.137,0.701-0.301,1.396-0.429,2.102c-0.37,2.039,0.354,3.987,1.953,5.294c0.682,0.557,2.045,0.295,2.825,0.046
		c0.935-0.297,0.671-1.17,0.374-1.878c-0.393-0.937-0.73-1.9-1.098-2.849c-0.446-1.147-0.729-2.348-0.656-3.588
		c-0.686,0.115,0.166-0.719-0.161-1.051c-0.152-0.155-0.277-0.208-0.19-0.463c0.043-0.125,0.127-0.283,0.052-0.418
		C12.793,67.605,12.958,67.523,12.805,67.309z"/>
	<path fill="#EEEEE2" d="M11.256,82.697c-0.745,0-0.699,1.216-0.674,1.67c0.045,0.824,0.662,0.95,1.342,0.626
		c0.247-0.117,0.515-0.172,0.76-0.296c0.434-0.217,0.272-0.321-0.068-0.562c-0.302-0.217-0.586-0.434-0.791-0.748
		C11.726,83.237,11.474,82.697,11.256,82.697z"/>
	<path fill="#EEEEE2" d="M10.498,77c0.078,0.039,0.122,0.548,0.139,0.627c0.085,0.4,0.167,0.804,0.271,1.2
		c0.191,0.723,0.423,1.626,0.955,2.174c0.255,0.265,0.313-0.456,0.331-0.617c0.056-0.526,0.101-1.079-0.105-1.581
		c-0.198-0.458-0.609-0.706-0.92-1.071C11.026,77.564,10.729,77.034,10.498,77z"/>
	<path fill="#EEEEE2" d="M9.802,82.998c-0.653,0-1.029,0.832-1.176,1.365c-0.341,0.343,0.909,0.718,1.062,0.757
		c0.132,0.034,0.641,0.163,0.691-0.03c0.063-0.243-0.033-0.548-0.079-0.787C10.213,83.851,10.527,82.998,9.802,82.998z"/>
	<path fill="#EEEEE2" d="M7.955,81.583c-0.308,0.125-0.607,0.274-0.935,0.344c-0.161,0.037-0.355,0.042-0.491,0.148
		c-0.253,0.197,0.343,1.286,0.633,1.286c0.366,0,0.704-0.561,0.912-0.806c0.125-0.146,0.327-0.233,0.412-0.412
		C8.606,81.885,8.122,81.649,7.955,81.583z"/>
	<path fill="#EEEEE2" d="M6.829,78.904c-0.741,0-0.794,0.413-0.854,1.017c0.01,0.543-0.12,1.804,0.695,1.804
		c0.599,0,1.317-0.311,1.057-0.978C7.57,80.341,7.367,78.904,6.829,78.904z"/>
	<path fill="#EEEEE2" d="M7.094,74.653c-0.426,0-0.357,0.782-0.32,1.011c0.007,0.042,0.086,0.525-0.088,0.337
		c-0.096-0.213-0.13-0.423-0.274-0.613c-0.431-0.57-0.402,0.401-0.45,0.702c-0.109,0.768-0.17,1.482-0.026,2.249
		c0.083,0.48,0.698,0.421,1.028,0.213C7.275,78.356,7.431,77.329,7.476,77C7.499,76.84,7.481,74.653,7.094,74.653z"/>
	<path fill="#EEEEE2" d="M11.997,68.495c-0.372,0-0.372,0.579,0,0.579C12.369,69.074,12.369,68.495,11.997,68.495z"/>
	<path fill="#EEEEE2" d="M38.095,68.495c-0.37,0-0.37,0.579,0,0.579C38.469,69.074,38.469,68.495,38.095,68.495z"/>
	<path fill="#EEEEE2" d="M9.094,82.871c-0.085-0.575-0.661-0.301-0.938-0.103C7.974,82.9,7.8,83.052,7.661,83.23
		c-0.014,0.017-0.235,0.443-0.179,0.436c0.064,0.255,0.453,0.629,0.728,0.613C8.46,84.267,9.13,83.113,9.094,82.871z"/>
	<path fill="#EEEEE2" d="M36.928,67.463c-0.189-0.053-0.299,1.23-0.296,1.304c0.015,0.325-0.008,0.483-0.167,0.749
		c-0.176,0.296-0.047,0.943-0.084,1.289c-0.204,1.883-1.134,3.578-1.767,5.332c-0.616,1.717-0.882,3.576-0.373,5.358
		c0.213,0.749,0.562,1.496,1.01,2.136c0.071,0.1,0.671,0.658,0.642,0.727c-0.086,0.213-0.253,0.085-0.368-0.011
		c-0.705-0.591-1.243-1.45-1.771-2.199c-0.385-0.553-0.684-1.157-1.043-1.728c-0.13-0.201-0.193-0.529-0.431-0.64
		c-0.277-0.138-0.346-0.637-0.498-0.888c-0.389-0.64-0.842-1.248-1.26-1.872c-0.15-0.226-0.34-0.472-0.608-0.558
		c-0.424-0.137-0.194-0.473-0.462-0.783c-0.329-0.383-0.727-0.698-1.008-1.123c-0.071-0.107-0.241-0.357-0.106-0.478
		c0.13-0.118,0.265-0.231,0.378-0.368c0.104-0.129,0.107-0.337,0.237-0.445c0.544-0.109,1.131-0.677,1.523-1.07
		c0.457-0.459,0.844-0.99,1.361-1.387c0.527-0.4,1.092-0.751,1.494-1.289c0.204-0.272,0.174-0.527,0.457-0.713
		c0.396-0.261,0.637-0.603,0.889-0.996c0.086-0.135,0.303-0.661,0.458-0.724c0.424-0.171,0.847-0.999,1.118-1.358
		C36.628,66.237,36.961,66.797,36.928,67.463C36.896,67.453,36.96,66.809,36.928,67.463z"/>
	<path fill="#EEEEE2" d="M34.476,77.907c0.158,0,0.458,0.262,0.633,0.312c0.271,0.078,0.553,0.112,0.831,0.142
		c0.322,0.036,0.641,0.088,0.96,0.14c0.238,0.037,0.652-0.048,0.853,0.085c-0.196,0.243-0.182,0.591-0.223,0.886
		c-0.055,0.404,0.229,1.018,0.064,1.384c-0.164,0.369-1.053,0.314-1.386,0.314c-0.659,0-1.655-0.144-1.803-0.933
		C34.359,79.988,34.202,77.907,34.476,77.907z"/>
	<path fill="#EEEEE2" d="M34.721,81.238c0.496,0,0.968,0.164,1.476,0.161c0.368-0.001,1.204-0.271,1.521-0.055
		c0.86,0.59,0.927,1.338,0.279,2.088c-0.302,0.35-0.715,0.683-1.183,0.75c-0.594,0.084-1.015-0.469-1.33-0.895
		C35.347,83.1,34.176,81.238,34.721,81.238z"/>
	<path fill="#EEEEE2" d="M37.303,67.309c0.451,0.262,0.05,1.358,0.085,1.77c0.033,0.371,0.03,1.375,0.361,1.611
		c0.16,0.114,0.297-1.109,0.303-1.275c0.012-0.299,0.51-0.279,0.406-0.727c-0.05-0.221-0.246-0.362-0.47-0.362
		c-0.182,0-0.281,0.202-0.45,0.202c0.038-0.264,0.065-0.528,0.079-0.795c0.081-0.02,0.531,0.536,0.722,0.617
		c0.322,0.139,0.864,0.367,1.073,0.655c0.237,0.329,0.193,0.938,0.265,1.323c0.114,0.625,0.258,1.244,0.384,1.867
		c0.24,1.199,0.312,2.305-0.15,3.463c-0.198,0.496-0.453,1.02-0.847,1.388c-0.355,0.338-0.506,0.746-0.962,1.002
		c-0.731,0.414-2.295,0.25-3.027-0.166c-0.695-0.394-0.254-1.342-0.021-1.886c0.41-0.957,0.761-1.957,1.126-2.934
		c0.403-1.08,0.643-2.214,0.573-3.373c0.699,0.117-0.225-0.8,0.225-1.1C37.381,68.32,37.043,67.67,37.303,67.309z"/>
	<path fill="#EEEEE2" d="M38.85,82.697c0.745,0,0.698,1.216,0.674,1.67c-0.045,0.824-0.662,0.95-1.342,0.626
		c-0.247-0.117-0.515-0.172-0.761-0.296c-0.434-0.217-0.272-0.321,0.068-0.562c0.304-0.217,0.586-0.434,0.791-0.748
		C38.38,83.237,38.634,82.697,38.85,82.697z"/>
	<path fill="#EEEEE2" d="M39.664,77c-0.004,0.001-0.028,0.477-0.034,0.52c-0.063,0.384-0.159,0.763-0.267,1.136
		c-0.227,0.779-0.503,1.655-1.025,2.29c-0.297,0.359-0.347-0.336-0.37-0.562c-0.057-0.526-0.102-1.079,0.105-1.581
		c0.198-0.458,0.609-0.707,0.919-1.071C39.135,77.564,39.431,77.034,39.664,77z"/>
	<path fill="#EEEEE2" d="M40.304,82.998c0.653,0,1.029,0.832,1.177,1.365c0.34,0.343-0.909,0.718-1.063,0.757
		c-0.133,0.034-0.641,0.163-0.691-0.03c-0.062-0.243,0.034-0.548,0.078-0.787C39.893,83.851,39.578,82.998,40.304,82.998z"/>
	<path fill="#EEEEE2" d="M42.151,81.583c0.308,0.125,0.607,0.274,0.936,0.344c0.159,0.037,0.354,0.042,0.491,0.148
		c0.253,0.197-0.343,1.286-0.635,1.286c-0.366,0-0.703-0.561-0.91-0.806c-0.125-0.146-0.328-0.233-0.412-0.412
		C41.499,81.885,41.984,81.649,42.151,81.583z"/>
	<path fill="#EEEEE2" d="M43.276,78.904c0.74,0,0.795,0.413,0.854,1.017c-0.011,0.541,0.119,1.804-0.695,1.804
		c-0.6,0-1.317-0.311-1.058-0.978C42.536,80.341,42.739,78.904,43.276,78.904z"/>
	<path fill="#EEEEE2" d="M43.012,74.653c0.427,0,0.356,0.782,0.319,1.011c-0.007,0.042-0.086,0.525,0.088,0.337
		c0.096-0.213,0.13-0.423,0.274-0.613c0.432-0.57,0.404,0.401,0.449,0.702c0.111,0.768,0.172,1.482,0.027,2.249
		c-0.084,0.48-0.698,0.421-1.028,0.213c-0.311-0.195-0.466-1.223-0.512-1.552C42.608,76.84,42.625,74.653,43.012,74.653z"/>
	<path fill="#EEEEE2" d="M39,67.271v-0.037C39,67.249,39,67.262,39,67.271z"/>
	<path fill="#EEEEE2" d="M41.011,82.871c0.086-0.575,0.662-0.301,0.939-0.103c0.181,0.132,0.354,0.283,0.494,0.462
		c0.015,0.017,0.236,0.443,0.179,0.436c-0.064,0.255-0.453,0.629-0.728,0.613C41.646,84.267,40.976,83.114,41.011,82.871z"/>
	<path fill="#EEEEE2" d="M11.427,58.75c-0.401,0.588-1.015,0.936-1.712,1.021c-0.172,0.021-0.35,0.011-0.522,0.04
		c-0.263,0.044-0.525,0.807-0.616,1.028c-0.269,0.667-0.601,1.687,0.048,2.241c0.218,0.186,0.502,0.258,0.783,0.254
		c0.072-0.002,0.451-0.113,0.499-0.08c-0.192,0.565-0.929,0.615-1.399,0.411C8.12,63.497,7.794,62.74,7.367,62.76
		c0.04,0.254,0.198,0.467,0.246,0.719c-0.02,0.273-0.056,0.543-0.117,0.81c-0.087,0.386-0.225,0.763-0.436,1.097
		c-0.348,0.553-0.887,0.936-1.514,1.098C4.908,66.646,3.504,66.719,3,66.144c1.315,0.486,3.686-0.417,3.853-2.011
		c0.077-0.737-0.653-1.258-0.712-1.973c-0.028-0.333,0.019-0.734,0.195-1.025c0.088-0.146,0.687-0.585,0.62-0.762
		c-0.094-0.248-0.861,0.404-0.929,0.48c-0.33,0.37-0.581,0.853-0.683,1.34c-0.102,0.488-0.06,0.982,0.2,1.415
		c0.137,0.228,0.315,0.427,0.504,0.61c0.29,0.282,0.483,0.302,0.182,0.66c-0.362,0.43-0.839,0.718-1.354,0.924
		c-0.285,0.115-0.355-0.031-0.498-0.269c-0.518-0.852-0.703-1.997-0.52-2.972c0.396-2.096,2.006-3.648,4.021-4.188
		c0.706-0.189,1.384-0.252,2.103-0.157C10.148,58.24,11.606,58.409,11.427,58.75C10.57,60.006,11.647,58.331,11.427,58.75z"/>
	<path fill="#EEEEE2" d="M12.915,64.008c0.462,0.035,0.314,1.67,0.253,1.893c-0.222,0.803-0.796,1.503-1.463,1.98
		c-1.857,1.328-4.2,0.638-5.823-0.667c-0.093-0.075-0.51-0.298-0.271-0.413c0.231-0.107,0.48-0.165,0.715-0.261
		c0.496-0.214,0.424-0.077,0.835,0.271c0.443,0.373,0.86,0.337,1.404,0.337c0.196,0,0.428,0.011,0.56,0.183
		c0.045,0.058,0.229,0.461,0.062,0.461c-0.13,0-0.251-0.086-0.387-0.086c-0.225,0-0.067,0.194,0.023,0.229
		c0.332,0.13,0.781,0.087,1.118,0.021c0.46-0.091,1.035-0.271,1.339-0.657c0.138-0.177,0.208-0.405,0.299-0.61
		c0.139-0.312,0.01-0.631,0.128-0.93c0.353,0.502,0.146,0.73,0.198,1.26c0.018,0.19,0.426-0.189,0.46-0.225
		C13.081,66.059,13.188,64.959,12.915,64.008z"/>
	<path fill="#EEEEE2" d="M8.984,65.248c-0.43,0.394-1.125,0.645-1.685,0.395c0.104-0.289,0.203-0.335,0.486-0.277
		C8.199,65.449,8.584,65.342,8.984,65.248z"/>
	<path fill="#EEEEE2" d="M12.671,55.884c0.443,0,0.86,0.984,0.949,1.323c0.143,0.555,0.067,1.141-0.149,1.665
		c-0.501,1.219-1.707,2.202-3.031,2.3c-0.272,0.021-1.247,0.047-1.341-0.296c-0.113-0.413,0.449-0.804,0.777-0.819
		c0.611-0.029,1.233-0.233,1.662-0.703c0.444-0.486,0.523-1.168,0.735-1.768c0.223,0.162,0.068,0.751,0.034,0.975
		c-0.027,0.176-0.069,0.391-0.003,0.563c0.109,0.288,0.476-0.335,0.519-0.411c0.27-0.471,0.393-1.035,0.333-1.578
		c-0.026-0.243-0.095-0.48-0.206-0.699C12.92,56.377,12.564,55.884,12.671,55.884z"/>
	<path fill="#EEEEE2" d="M10.761,67.167l0.005,0.094C10.764,67.238,10.763,67.205,10.761,67.167z"/>
	<path fill="#EEEEE2" d="M10.768,67.301l-0.001-0.02C10.767,67.291,10.768,67.297,10.768,67.301z"/>
	<path fill="#EEEEE2" d="M11.068,66.354c0.044,0.07,0.257,0.321,0.224,0.393c-0.104,0.224-0.304,0.559-0.586,0.559
		c-0.008-0.512,0.012-1.026,0.065-1.535c0.05-0.473,0.112-1.554,0.671-1.742C11.153,64.652,10.722,65.686,11.068,66.354z"/>
	<path fill="#EEEEE2" d="M32.773,54.402l-0.28-0.101C32.508,54.305,32.631,54.333,32.773,54.402z"/>
	<path fill="#EEEEE2" d="M39.021,66.409c-0.046,0.069-0.259,0.321-0.225,0.392c0.104,0.225,0.304,0.561,0.586,0.561
		c0.009-0.514-0.011-1.028-0.065-1.537c-0.049-0.471-0.112-1.553-0.672-1.741C38.935,64.707,39.367,65.741,39.021,66.409z"/>
	<path fill="#EEEEE2" d="M35.574,53.41c-0.155,0.279-0.396,0.518-0.7,0.623c-0.332,0.117-0.614,0.009-0.606,0.451
		c0.009,0.602-0.34,1.17-0.95,1.277c0.279-0.589,0.048-1.406-0.544-1.691c0.049,0.018,0.096,0.033,0.143,0.051
		c-0.154-0.067-0.417-0.219-0.595-0.185c0.821,1.204,0.877,2.826-0.051,3.99c-1.29,1.241-3.178,0.701-4.579-0.03
		c0.328-0.197,0.665-0.412,1.049-0.474c0.383-0.066,0.742,0.149,1.102,0.236c0.64,0.155,1.324-0.107,1.677-0.671
		c0.705-1.131,0.125-2.801-1.064-3.327c-1.331-0.589-2.797,0.122-3.391,1.39c-0.364,0.777-0.418,1.645-0.271,2.484
		c0.152,0.879,0.675,1.406,1.079,2.164c-0.314,0.215-0.966,0.067-1.33,0.143c-0.244,0.049-0.729,0.389-0.964,0.297
		c-1.263-0.492-2.398-0.474-3.706-0.06c-0.007-0.329,0.397-0.614,0.469-0.942c0.136-0.627,0.317-0.279,0.801-0.279
		c0.2,0,0.364-0.115,0.536-0.201c0.342-0.171,0.515,0.041,0.849,0.041c0.264,0,0.41-0.283,0.652-0.283
		c0.113,0,0.497,0.133,0.584-0.018c0.043-0.074-0.353-0.18-0.396-0.192c-0.358-0.106-0.284,0.034-0.571,0.209
		c-0.275,0.166-0.535-0.045-0.818-0.045c-0.275,0-0.526,0.325-0.796,0.252c0.011-0.341,0.315-0.61,0.359-0.96
		c0.058-0.471,0.08-0.949,0.037-1.421c-0.082-0.884-0.419-1.675-1.19-2.161c-1.245-0.783-3.566-0.283-3.86,1.337
		c-0.069,0.383,0.008,0.742,0.151,1.097c0.176,0.434,0.288,0.543-0.231,0.502c-0.888-0.068-1.004-0.689-0.993-1.486
		c0.006-0.383,0.338-0.812,0.299-1.163c-0.043-0.402-0.791-0.038-0.926,0.08c-0.283,0.246-0.392,0.56-0.422,0.921
		c-0.006,0.074-0.009,0.767,0.076,0.757c-0.293,0.032-0.726-0.696-0.817-0.899c-0.087-0.193-0.155-0.452-0.082-0.66
		c0.027-0.096,0.386-0.389,0.385-0.396c-1.039-0.227-1.88-1.041-1.567-2.166c0.099,0.998,0.722,1.701,1.729,1.758
		c0.345,0.02,0.716,0.001,1.056-0.035c0.867-0.094,1.547-0.564,2.337-0.88c1.376-0.549,3.281-0.366,4.463,0.558
		c0.579,0.451,1.045,1.057,1.279,1.758c0.074,0.225,0.391,2.06,0.555,2.06c0.217,0-0.141-1.665-0.174-1.787
		c-0.087-0.317-0.193-0.629-0.333-0.927c-0.091-0.191-0.17-0.201-0.046-0.398c0.114-0.18,0.243-0.352,0.385-0.51
		c0.874-0.964,2.188-1.312,3.448-1.222c1.245,0.088,2.178,0.69,3.303,1.16c1.409,0.588,3.195,0.286,3.288-1.534
		C35.985,52.371,35.778,53.043,35.574,53.41C35.354,53.803,35.764,53.07,35.574,53.41z"/>
	<path fill="#EEEEE2" d="M38.571,58.75c0.402,0.588,1.016,0.936,1.712,1.021c0.172,0.021,0.351,0.011,0.521,0.04
		c0.265,0.044,0.526,0.807,0.616,1.028c0.27,0.667,0.6,1.687-0.048,2.241c-0.219,0.186-0.501,0.258-0.783,0.254
		c-0.072-0.002-0.45-0.113-0.499-0.08c0.191,0.565,0.928,0.615,1.399,0.411c0.39-0.168,0.716-0.925,1.141-0.905
		c-0.039,0.254-0.196,0.467-0.246,0.719c0.022,0.273,0.059,0.543,0.119,0.81c0.087,0.386,0.225,0.763,0.436,1.097
		c0.348,0.553,0.887,0.936,1.515,1.098c0.637,0.164,2.041,0.236,2.546-0.339c-1.315,0.486-3.687-0.417-3.854-2.011
		c-0.077-0.737,0.652-1.258,0.712-1.973c0.027-0.333-0.018-0.734-0.194-1.025c-0.088-0.146-0.686-0.585-0.621-0.762
		c0.094-0.248,0.861,0.404,0.93,0.48c0.331,0.37,0.58,0.853,0.683,1.34c0.102,0.488,0.06,0.982-0.2,1.415
		c-0.137,0.228-0.315,0.427-0.505,0.61c-0.289,0.282-0.482,0.302-0.182,0.66c0.362,0.43,0.839,0.718,1.354,0.924
		c0.285,0.115,0.354-0.031,0.499-0.269c0.517-0.852,0.701-1.997,0.518-2.972c-0.395-2.096-2.005-3.648-4.021-4.188
		c-0.706-0.189-1.384-0.252-2.102-0.157C39.85,58.24,38.393,58.409,38.571,58.75C39.427,60.006,38.351,58.331,38.571,58.75z"/>
	<path fill="#EEEEE2" d="M33.167,56.806C33.143,56.782,33.182,56.934,33.167,56.806C33.167,56.807,33.166,56.796,33.167,56.806z"/>
	<g>
		<path fill="#EEEEE2" d="M36.946,91.505c-0.114-0.055-0.645,0.462-0.735,0.536c-0.38,0.301-1.102,0.48-0.282-0.034
			c0.57-0.36,0.988-0.622,0.873-1.341c-0.024-0.15-0.039-0.393-0.166-0.497c-0.134-0.11-0.585,0.319-0.739,0.386
			c-0.115,0.049-0.239,0.052-0.117-0.091c0.211-0.248,0.567-0.39,0.692-0.708c0.038-0.096,0.017-0.779-0.127-0.779
			c-0.16,0-0.38,0.208-0.504,0.295c-1.14,0.803-2.628,1.143-3.979,1.403c-1.641,0.317-3.346,0.397-5.013,0.499
			c-1.553,0.095-3.094,0.148-4.649,0.021c-2.936-0.243-6.375-0.53-8.739-2.503c-0.266,0.483-0.233,0.668,0.173,1.064
			c0.145,0.141,0.909,0.604,0.831,0.898c-0.009,0.034-0.887-0.486-0.962-0.557c-0.353-0.335-0.477-0.542-0.716-0.024
			c-0.239,0.515,0.313,0.95,0.666,1.245c0.17,0.141,0.809,0.739,1.007,0.729c-0.233,0.014-0.615-0.267-0.807-0.371
			c-0.173-0.096-1.188-0.808-1.227-0.711c-0.225,0.577-0.202,0.828,0.291,1.245c0.499,0.424,1.094,0.745,1.674,1.041
			c2.688,1.359,5.684,1.765,8.654,1.92c1.397,0.072,2.759,0.072,4.156-0.005c1.412-0.078,2.793-0.038,4.187-0.339
			c1.282-0.279,2.604-0.684,3.76-1.316c0.571-0.308,1.112-0.624,1.635-1.012C36.938,92.387,37.332,91.625,36.946,91.505z"/>
		<path fill="#EEEEE2" d="M36.946,91.505C37.048,91.537,36.945,91.505,36.946,91.505L36.946,91.505z"/>
	</g>
</g>
</svg>
